<svg width="70" height="70" fill="none" xmlns="http://www.w3.org/2000/svg"><g clip-path="url(#clip0)" fill="#fff"><path d="M67.88 46.553h-2.873c.198-.388.331-.814.385-1.264a2.01 2.01 0 001.55-.359 1.996 1.996 0 00.796-1.962l-.509-2.94 2.157-2.084a1.992 1.992 0 00.515-2.059 2.004 2.004 0 00-1.633-1.374l-2.849-.41V9.297a3.764 3.764 0 00-3.76-3.76H15.601a2.002 2.002 0 00-1.61-1.309l-2.986-.43-1.335-2.68A2.008 2.008 0 007.861 0C7.09 0 6.396.428 6.053 1.117l-1.335 2.68-2.987.431A2.003 2.003 0 00.098 5.602a1.993 1.993 0 00.516 2.059L2.77 9.744l-.508 2.94c-.131.757.174 1.51.795 1.963.355.26.772.392 1.192.392.11 0 .221-.013.33-.031v2.458a1.025 1.025 0 102.052 0v-3.411l1.23-.642.82.428v29.636c0 .566.46 1.025 1.026 1.025h47.195c.12.16.264.305.432.428a2.016 2.016 0 002.13.16l2.674-1.393 1.23.641v.506a1.71 1.71 0 01-1.709 1.709H8.34a1.71 1.71 0 01-1.708-1.71V21.842a1.025 1.025 0 10-2.051 0v23.003c0 .615.15 1.195.413 1.709H2.119c-1.168 0-2.119.95-2.119 2.119v.82c0 2.828 2.3 5.127 5.127 5.127h6.505a5.93 5.93 0 00-1.447 3.887c0 1.121.91 2.033 2.026 2.033h9.664a1.025 1.025 0 100-2.05h-9.639c.01-2.136 1.735-3.87 3.854-3.87h10.36a5.18 5.18 0 00-.034.572 1.774 1.774 0 001.724 1.771c5.656.155 10.068.72 11.241 1.443.537.33 1.2.84 1.776 1.295a1.025 1.025 0 001.27-1.61c-.655-.517-1.346-1.048-1.972-1.432-2.034-1.252-8.252-1.626-11.975-1.738a2.901 2.901 0 012.887-2.63H46.42c3.947.001 6.591.842 8.34 2.098a.88.88 0 00.08.06c1.878 1.386 2.695 3.258 2.981 5.062L43.837 62.14h-.645a13.397 13.397 0 01-6.52-1.695 15.471 15.471 0 00-7.519-1.956H26.25a1.025 1.025 0 100 2.051h2.902c2.276 0 4.53.587 6.52 1.696a15.471 15.471 0 007.519 1.954h.131l2.872 5.276c.18.33.525.535.9.535h18.904a1.025 1.025 0 00.88-1.55l-5.34-8.956a1.026 1.026 0 00-1.07-.482l-.636.12c-.283-1.712-.931-3.242-1.912-4.513h6.952c2.828 0 5.127-2.3 5.127-5.127v-.82c0-1.169-.95-2.12-2.119-2.12zM6.925 11.588l-1.804.94a.03.03 0 01-.007.004l-.819.427.5-2.89a2.006 2.006 0 00-.583-1.784l-2.11-2.038 2.924-.421a2.018 2.018 0 001.52-1.097l1.316-2.643 1.315 2.643a2.018 2.018 0 001.52 1.096l2.923.422-2.11 2.038a2.004 2.004 0 00-.583 1.784l.5 2.89-1.218-.635-.042-.022-1.37-.713a2.027 2.027 0 00-1.872 0zm3.807 3.307a2.008 2.008 0 001.934-.248 1.996 1.996 0 00.795-1.962l-.172-.995h39.21a1.025 1.025 0 100-2.051H13.063l2.047-1.978.07-.073h46.48a1.71 1.71 0 011.71 1.709v21.402a2.036 2.036 0 00-2.05-.244v-19.79c0-.568-.46-1.026-1.026-1.026H56.91a1.025 1.025 0 100 2.05h2.358v21.846l-.272.546-2.987.43a2.004 2.004 0 00-1.633 1.374 1.992 1.992 0 00.516 2.059l2.156 2.084-.419 2.423H10.732V14.895zm51.406 26.748a2.02 2.02 0 00-.936.229l-2.63 1.37.5-2.89a2.006 2.006 0 00-.583-1.783l-2.11-2.039 2.924-.421a2.016 2.016 0 001.519-1.097l1.316-2.643 1.316 2.643c.006.013.014.023.02.035a2.016 2.016 0 001.5 1.061l2.923.422-2.11 2.039a2.003 2.003 0 00-.583 1.783l.5 2.89-.818-.426-.01-.005-1.802-.94a2.021 2.021 0 00-.936-.228zm2.054 26.306H47.704l-2.198-4.037 14.637-2.752 4.05 6.79zm3.757-18.457a3.08 3.08 0 01-3.077 3.076H55.73c-2.278-1.546-5.4-2.328-9.311-2.328H31.367c-1.72 0-3.303.896-4.197 2.328H5.127a3.08 3.08 0 01-3.076-3.076v-.82c0-.037.03-.069.068-.069H67.88a.07.07 0 01.069.069v.82z"/><path d="M26.797 17.084H15.859a1.025 1.025 0 100 2.05h10.938a1.025 1.025 0 100-2.05zm0 3.97H15.859a1.025 1.025 0 100 2.05h10.938a1.025 1.025 0 100-2.05zm0 3.969H15.859a1.025 1.025 0 100 2.051h10.938a1.025 1.025 0 100-2.05zm0 3.97H15.859a1.026 1.026 0 000 2.05h10.938a1.025 1.025 0 100-2.05zm0 3.97H15.859a1.025 1.025 0 100 2.05h10.938a1.025 1.025 0 100-2.05zm27.088-5.093c.327-.496.734-1.113.734-1.893s-.407-1.398-.734-1.895c-.158-.24-.321-.488-.364-.65-.049-.181-.031-.49-.015-.789.033-.584.073-1.311-.306-1.966-.383-.663-1.038-.992-1.564-1.256-.263-.132-.535-.27-.662-.396-.126-.126-.263-.398-.395-.661-.264-.527-.593-1.181-1.256-1.565-.655-.378-1.382-.338-1.967-.305-.298.016-.607.034-.788-.015-.162-.043-.41-.207-.65-.365-.497-.327-1.114-.733-1.895-.733-.78 0-1.397.406-1.893.733-.24.158-.489.322-.65.365-.182.049-.491.031-.79.015-.584-.033-1.311-.073-1.966.305-.662.384-.992 1.038-1.256 1.565-.132.263-.269.535-.395.661-.126.127-.399.264-.662.396-.526.264-1.181.593-1.564 1.256-.379.655-.339 1.382-.306 1.966.017.299.034.608-.015.789-.043.162-.206.41-.365.65-.326.497-.733 1.114-.733 1.895 0 .78.407 1.397.733 1.894.159.24.322.488.365.65.049.181.032.49.015.79-.032.583-.073 1.31.306 1.966.383.662 1.038.99 1.564 1.255.263.133.535.27.662.396.126.126.263.398.395.662.265.526.594 1.18 1.256 1.564.655.379 1.383.338 1.966.305.299-.016.608-.033.79.015.162.044.41.207.65.365.496.327 1.114.733 1.893.733.78 0 1.399-.406 1.895-.733.24-.158.488-.322.65-.365.181-.048.49-.031.788-.015.585.033 1.312.073 1.967-.305.663-.384.992-1.038 1.256-1.564.132-.264.269-.536.395-.662.127-.127.399-.263.662-.395.526-.265 1.181-.594 1.564-1.256.38-.656.339-1.383.306-1.967-.016-.299-.034-.608.015-.789.043-.162.206-.41.364-.65zm-1.712-1.127c-.236.359-.505.765-.634 1.249-.133.498-.105.994-.08 1.432.016.296.039.7-.034.826-.076.131-.443.316-.71.45-.39.196-.83.417-1.19.777-.361.36-.583.802-.778 1.191-.135.268-.319.634-.451.71-.125.073-.53.05-.825.034-.438-.024-.935-.052-1.433.08-.482.13-.89.398-1.248.634-.268.177-.601.396-.767.396-.165 0-.498-.22-.766-.396-.358-.236-.765-.504-1.249-.633a3.354 3.354 0 00-.873-.102c-.193 0-.381.011-.559.02-.295.017-.7.04-.825-.032-.133-.077-.316-.443-.45-.71-.196-.39-.418-.831-.778-1.192-.36-.36-.801-.581-1.191-.777-.267-.134-.634-.319-.71-.45-.073-.125-.05-.53-.034-.826.025-.438.053-.934-.08-1.432-.13-.483-.397-.89-.634-1.25-.176-.267-.396-.6-.396-.765 0-.166.22-.499.396-.767.236-.358.504-.765.634-1.248.133-.498.105-.994.08-1.433-.016-.295-.039-.7.034-.825.076-.132.443-.316.71-.45.39-.196.83-.418 1.191-.778.36-.36.582-.802.777-1.191.135-.267.319-.634.451-.71.125-.073.53-.05.825-.034.439.025.935.053 1.432-.08.483-.13.89-.398 1.25-.634.267-.176.6-.395.765-.395.166 0 .5.22.767.395.359.236.765.504 1.248.634.498.132.994.105 1.432.08.296-.016.7-.039.826.034.132.076.316.443.45.71.196.39.418.83.778 1.19.36.361.801.583 1.19.778.268.135.635.319.71.451.073.125.05.53.034.825-.024.438-.052.935.081 1.433.13.483.397.89.634 1.248.176.268.395.601.395.767 0 .165-.22.498-.395.766z"/><path d="M41.991 22.92a1.026 1.026 0 11-2.05-.001 1.026 1.026 0 012.05 0zm6.115 6.114a1.026 1.026 0 11-2.051 0 1.026 1.026 0 012.051 0zm-1.703-6.888l-6.21 6.21a1.026 1.026 0 101.45 1.45l6.21-6.21a1.026 1.026 0 00-1.45-1.45z"/></g><defs><clipPath id="clip0"><path fill="#fff" d="M0 0h70v70H0z"/></clipPath></defs></svg>