<svg width="70" height="70" fill="none" xmlns="http://www.w3.org/2000/svg"><path d="M44.655 18.192a3.422 3.422 0 003.418-3.418 3.422 3.422 0 00-3.418-3.418 3.422 3.422 0 00-3.418 3.418c0 .77.256 1.48.688 2.053l-5.616 7.848a3.403 3.403 0 00-3.391.746l-3.743-2.124a3.422 3.422 0 00-3.341-4.137 3.422 3.422 0 00-3.342 4.137l-3.743 2.124a3.405 3.405 0 00-2.327-.917 3.422 3.422 0 00-3.418 3.418 3.422 3.422 0 003.418 3.418 3.422 3.422 0 003.342-4.136l3.743-2.124a3.405 3.405 0 004.653 0l3.743 2.124a3.422 3.422 0 003.341 4.137 3.422 3.422 0 003.419-3.419 3.4 3.4 0 00-.688-2.053l5.616-7.847c.335.11.693.17 1.064.17zm0-4.785c.754 0 1.368.613 1.368 1.367s-.614 1.367-1.368 1.367a1.368 1.368 0 010-2.735zM16.422 29.289a1.369 1.369 0 01-1.367-1.367 1.368 1.368 0 012.734 0c0 .754-.613 1.367-1.367 1.367zm9.411-5.343a1.369 1.369 0 01-1.367-1.368c0-.753.613-1.367 1.367-1.367s1.367.614 1.367 1.367a1.37 1.37 0 01-1.367 1.368zm9.411 5.343a1.369 1.369 0 01-1.367-1.367 1.368 1.368 0 012.735 0 1.37 1.37 0 01-1.368 1.367z" fill="#fff"/><path d="M57.257 51.538H2.9a.85.85 0 01-.85-.85V8.386a.85.85 0 01.85-.85h4.834a1.025 1.025 0 100-2.05H2.9c-1.599 0-2.9 1.3-2.9 2.9v42.303c0 1.6 1.301 2.901 2.9 2.901h7.07v2.257a2.334 2.334 0 002.332 2.331h10.264l-4.831 9.433a1.025 1.025 0 101.825.935l5.31-10.368h11.337l5.31 10.368a1.025 1.025 0 101.826-.935l-4.832-9.433h10.264a2.334 2.334 0 002.332-2.331V53.59h6.15a1.025 1.025 0 100-2.05zm-8.2 4.308c0 .154-.127.28-.282.28H12.302a.281.281 0 01-.28-.28v-2.257h37.034v2.257zM11.836 7.535h46.341a.85.85 0 01.85.85v9.75a1.025 1.025 0 102.05 0v-9.75c0-1.6-1.3-2.9-2.9-2.9H36.23V3.469A2.575 2.575 0 0033.657.897H27.42a2.576 2.576 0 00-2.572 2.572v2.016H11.836a1.025 1.025 0 100 2.05zM26.898 3.47c0-.288.235-.522.522-.522h6.237c.288 0 .522.234.522.522v2.016h-7.28V3.469z" fill="#fff"/><path d="M14.342 36.583c-.566 0-1.025.459-1.025 1.025v9.06c0 .567.459 1.026 1.025 1.026h4.16c.566 0 1.025-.459 1.025-1.025v-9.061c0-.566-.459-1.025-1.025-1.025h-4.16zm3.135 9.06h-2.11v-7.01h2.11v7.01zm6.276-14.3c-.566 0-1.025.459-1.025 1.025v14.3c0 .567.459 1.026 1.025 1.026h4.16c.566 0 1.025-.459 1.025-1.025V32.368c0-.567-.459-1.026-1.025-1.026h-4.16zm3.135 14.3h-2.11v-12.25h2.11v12.25zm6.276-9.06c-.566 0-1.025.459-1.025 1.025v9.06c0 .567.459 1.026 1.025 1.026h4.16c.567 0 1.026-.459 1.026-1.025v-9.061c0-.566-.46-1.025-1.026-1.025h-4.16zm3.135 9.06h-2.11v-7.01h2.11v7.01zm6.276-3.01c-.566 0-1.025.46-1.025 1.026v3.01c0 .566.46 1.025 1.026 1.025h4.16a1.025 1.025 0 100-2.05H43.6v-1.985c0-.567-.46-1.026-1.026-1.026zm26.902 9.87l-5.883-10.19a13.335 13.335 0 003.156-5.693c.926-3.457.45-7.069-1.34-10.17-3.694-6.4-11.907-8.6-18.307-4.905-6.4 3.695-8.6 11.908-4.905 18.308 1.79 3.1 4.68 5.318 8.138 6.244 1.154.31 2.326.463 3.49.463 1.017 0 2.03-.117 3.018-.349l5.882 10.19A3.9 3.9 0 0070 54.448a3.9 3.9 0 00-.523-1.946zm-18.61-8.387a11.277 11.277 0 01-6.893-5.289c-3.13-5.42-1.266-12.376 4.155-15.506a11.28 11.28 0 015.656-1.518c3.926 0 7.75 2.036 9.85 5.673a11.277 11.277 0 011.134 8.614 11.277 11.277 0 01-5.29 6.892 11.277 11.277 0 01-8.613 1.134zm16.158 11.935a1.85 1.85 0 01-2.523-.676l-5.658-9.803a13.575 13.575 0 003.197-1.848l5.66 9.804c.162.282.248.6.248.922 0 .658-.354 1.272-.924 1.601z" fill="#fff"/><path d="M63.101 36.04a9.704 9.704 0 00-.485-7.029 1.025 1.025 0 10-1.855.874 7.657 7.657 0 01.382 5.547 7.66 7.66 0 01-3.496 4.375 7.634 7.634 0 01-5.832.768 7.634 7.634 0 01-4.666-3.581c-2.119-3.67-.857-8.379 2.813-10.497a7.674 7.674 0 018.483.527 1.025 1.025 0 101.238-1.636 9.72 9.72 0 00-10.747-.668 9.672 9.672 0 00-4.536 5.912 9.672 9.672 0 00.973 7.387 9.672 9.672 0 005.911 4.537 9.678 9.678 0 007.388-.973 9.704 9.704 0 004.43-5.542z" fill="#fff"/></svg>