<svg width="50" height="44" fill="none" xmlns="http://www.w3.org/2000/svg"><path d="M48.291.412H1.709A1.71 1.71 0 000 2.12v6.015c0 .947 1.465.947 1.465 0V2.12c0-.135.11-.244.244-.244h46.582c.135 0 .244.11.244.244v35.716c0 .135-.11.245-.244.245h-9.386v-1.525h7.367a.732.732 0 00.732-.732v-7.67c0-.947-1.465-.947-1.465 0v6.938h-6.634v-3.25l.07.006c.608.054 1.365.12 1.889-.405.523-.524.457-1.281.404-1.89-.058-.652.004-.831.506-1.248 1.292-1.074 1.316-2.225 0-3.319-.502-.417-.563-.595-.506-1.248.143-1.639-.622-2.442-2.293-2.295-.651.057-.828-.005-1.244-.506-1.072-1.295-2.223-1.32-3.316 0-.416.501-.592.564-1.244.506-1.64-.144-2.439.626-2.292 2.295.057.653-.005.831-.506 1.248-1.292 1.075-1.316 2.225 0 3.319.501.417.563.596.506 1.249-.154 1.755.684 2.433 2.362 2.288v3.25H4.461V4.865h41.078V24.25c0 .947 1.465.947 1.465 0V4.133a.732.732 0 00-.732-.732H3.728a.732.732 0 00-.732.732v31.692c0 .405.328.732.732.732h29.513v1.525H1.709a.244.244 0 01-.244-.245v-25.99c0-.947-1.465-.947-1.465 0v25.99c0 .943.767 1.71 1.709 1.71h31.532v3.315c.104.602.452.823 1.041.664l1.791-.833 1.79.833c.444.206 1.042-.12 1.042-.664v-3.316h9.386A1.71 1.71 0 0050 37.837V2.121A1.71 1.71 0 0048.291.41zM33.043 30.39c-.734.064-.77.025-.705-.708.098-1.124-.16-1.78-1.03-2.503-.593-.494-.593-.571 0-1.065.87-.722 1.128-1.379 1.03-2.503-.064-.733-.029-.772.704-.708 1.125.1 1.78-.161 2.501-1.031.492-.594.568-.594 1.06 0 .72.87 1.376 1.13 2.5 1.031.734-.064.77-.025.705.708-.098 1.124.16 1.78 1.03 2.503.593.494.594.571-.001 1.065-.869.722-1.127 1.378-1.029 2.503.065.733.029.772-.704.708-.46-.04-.982-.087-1.442.104-.444.185-.757.562-1.06.927-.142.172-.401.486-.53.542-.127-.056-.387-.37-.529-.542-.302-.365-.615-.742-1.06-.927a3.206 3.206 0 00-1.44-.104zm3.339 10.831a.732.732 0 00-.618 0l-1.058.493v-9.019c.347.382.776.737 1.367.737.59 0 1.02-.355 1.367-.737v9.019l-1.058-.493z" fill="#015D9D"/><path d="M9.498 10.996h25.25c.946 0 .946-1.465 0-1.465H9.497c-.947 0-.947 1.465 0 1.465zm31.736 3.723a.732.732 0 00-.732-.733H9.498c-.947 0-.947 1.465 0 1.465h31.004a.732.732 0 00.732-.732zm-13.389 4.455a.732.732 0 00-.732-.733H9.498c-.947 0-.947 1.465 0 1.465h17.615a.732.732 0 00.732-.732zm-9.617 10.209l-1.198.001c-.769 0-1.192-.204-1.349-1.019-.143-.743-1.215-.649-1.412 0-.087.288-.527 1.11-.91 1.043-.204-.036-.293-.35-.368-.512a6.245 6.245 0 01-.344-.987c-.386-1.42-.463-2.902-.704-4.348-.14-.838-1.418-.601-1.439.195-.065 2.536-.48 5.038-1.383 7.415-.335.882 1.08 1.264 1.413.39.348-.917.624-1.856.839-2.808.115.347.252.687.42 1.018.427.846 1.3 1.346 2.233.97a2.5 2.5 0 00.896-.654c.693.799 1.724.762 2.685.761l4.35-.009c.943-.003.944-1.467 0-1.465-1.243.004-2.486.007-3.73.009zm17.845.124a2.864 2.864 0 002.86-2.86 2.864 2.864 0 00-2.86-2.861 2.864 2.864 0 00-2.861 2.86 2.864 2.864 0 002.86 2.861zm0-4.256c.77 0 1.396.626 1.396 1.395 0 .77-.627 1.396-1.396 1.396a1.396 1.396 0 010-2.791z" fill="#015D9D"/></svg>