<svg width="45" height="45" fill="none" xmlns="http://www.w3.org/2000/svg"><path d="M20.883 22.045c4.533 0 8.22-3.687 8.22-8.22 0-4.533-3.687-8.22-8.22-8.22-4.534 0-8.222 3.687-8.222 8.22 0 4.533 3.688 8.22 8.222 8.22zm0-14.683a6.47 6.47 0 016.463 6.464 6.47 6.47 0 01-6.463 6.46 6.47 6.47 0 01-6.464-6.46c0-3.564 2.9-6.464 6.463-6.464z" fill="#015D9D"/><path d="M20.883 14.35a.879.879 0 00.879-.88v-3.142a.879.879 0 00-1.758 0v3.143c0 .485.393.879.879.879zm0 3.848a.88.88 0 10-.88-.88v.003c0 .485.394.877.88.877z" fill="#015D9D"/><path d="M39.091 11.517h-4.6a1.901 1.901 0 00-1.683-1.021h-.385a11.902 11.902 0 00-1.027-2.476l.27-.27c.36-.359.559-.837.559-1.346 0-.51-.199-.987-.557-1.343l-2.02-2.023a1.886 1.886 0 00-1.344-.555 1.89 1.89 0 00-1.343.554l-.274.274a11.843 11.843 0 00-2.475-1.026V1.9c0-1.048-.852-1.9-1.9-1.9h-2.86c-1.047 0-1.9.852-1.9 1.9v.385a11.84 11.84 0 00-2.474 1.026l-.274-.273a1.886 1.886 0 00-1.343-.555c-.508 0-.985.197-1.343.555l-2.019 2.021c-.36.358-.558.836-.558 1.345 0 .51.198.987.555 1.342l.274.274c-.436.788-.78 1.616-1.027 2.476h-.386c-.73 0-1.365.415-1.683 1.02h-4.62C1.19 11.517 0 12.717 0 14.192v20.067c0 1.474 1.2 2.674 2.674 2.674h12.242l-1.31 2.79h-1.004a2.644 2.644 0 00-2.64 2.64v1.76c0 .484.393.878.879.878h20.084a.879.879 0 00.879-.879v-1.76a2.644 2.644 0 00-2.641-2.64h-1.004l-1.31-2.79h12.242a2.676 2.676 0 002.674-2.673V14.19c0-1.475-1.2-2.674-2.674-2.674zm-30.276.879c0-.076.067-.143.142-.143h1.067a.879.879 0 00.858-.686c.255-1.137.704-2.22 1.334-3.215a.88.88 0 00-.12-1.09l-.758-.76a.136.136 0 01-.04-.098c0-.027.008-.065.043-.1l2.02-2.024a.139.139 0 01.1-.04c.028 0 .067.007.1.04l.757.757a.879.879 0 001.092.12c.99-.628 2.07-1.076 3.214-1.332a.879.879 0 00.687-.858V1.9c0-.077.065-.142.142-.142h2.86c.077 0 .142.065.142.142v1.067c0 .412.285.768.686.858a10.09 10.09 0 013.214 1.333.88.88 0 001.093-.121l.756-.757a.139.139 0 01.1-.04.14.14 0 01.1.04l2.023 2.026c.033.033.04.071.04.098a.139.139 0 01-.043.101l-.754.757a.879.879 0 00-.12 1.09c.63.996 1.078 2.078 1.333 3.215a.88.88 0 00.858.687h1.067c.076 0 .142.066.142.142v2.857a.146.146 0 01-.142.142h-1.067a.879.879 0 00-.858.687 10.172 10.172 0 01-1.333 3.217.879.879 0 00.121 1.092l.754.754a.144.144 0 010 .202l-2.021 2.021a.139.139 0 01-.1.04.139.139 0 01-.1-.04l-.756-.756a.879.879 0 00-1.093-.12 10.12 10.12 0 01-3.214 1.332.879.879 0 00-.686.858v1.067a.144.144 0 01-.142.142h-2.86a.144.144 0 01-.142-.142v-1.067a.879.879 0 00-.687-.858 10.106 10.106 0 01-3.214-1.333.877.877 0 00-1.092.12l-.757.757a.14.14 0 01-.1.04.139.139 0 01-.1-.04l-2.02-2.02a.144.144 0 010-.203l.753-.754a.88.88 0 00.122-1.091 10.166 10.166 0 01-1.334-3.218.879.879 0 00-.857-.687H8.957a.146.146 0 01-.142-.142v-2.857zm21.23 29.966v.88H11.72v-.88c0-.487.396-.883.882-.883h16.561c.487 0 .883.396.883.883zm-3.828-2.64H15.548l1.31-2.79h8.05l1.31 2.79zm12.874-4.548H2.674a.918.918 0 01-.916-.916V32.76h24.161a.879.879 0 000-1.757H1.758V14.19c0-.505.402-.917.896-.917h4.403v1.98c0 1.047.853 1.899 1.9 1.899h.385c.248.86.591 1.69 1.027 2.477l-.272.272a1.903 1.903 0 000 2.688l2.021 2.021c.358.358.835.555 1.343.555s.986-.197 1.343-.555l.274-.274a11.84 11.84 0 002.475 1.027v.385c0 1.048.852 1.9 1.9 1.9h2.86c1.047 0 1.9-.852 1.9-1.9v-.385c.861-.248 1.69-.591 2.474-1.027l.274.274c.358.358.835.555 1.343.555s.985-.197 1.343-.555l2.021-2.02a1.904 1.904 0 000-2.69l-.272-.271a11.9 11.9 0 001.027-2.477h.385c1.048 0 1.9-.852 1.9-1.9v-1.979h4.383c.505 0 .916.412.916.917v16.812h-5.88a.879.879 0 000 1.758h5.88v1.496a.917.917 0 01-.916.917z" fill="#015D9D"/><path d="M30.023 31.003a.879.879 0 000 1.758h.003a.878.878 0 10-.003-1.758z" fill="#015D9D"/></svg>