<svg width="71" height="70" fill="none" xmlns="http://www.w3.org/2000/svg"><g clip-path="url(#clip0)" fill="#FFF"><path d="M17.425 53.799H2.926a.342.342 0 01-.341-.342V8.34c0-.189.153-.342.341-.342h51.09a1.025 1.025 0 000-2.051H2.927A2.394 2.394 0 00.536 8.34v45.117a2.394 2.394 0 002.39 2.392h14.5a1.025 1.025 0 000-2.05zM68.073 5.947H58.48a1.025 1.025 0 000 2.05h9.593c.189 0 .342.154.342.343v45.117a.342.342 0 01-.342.342H21.89a1.025 1.025 0 000 2.05h4.207l-1.024 6.153h-5.415a1.025 1.025 0 000 2.051h31.686a1.025 1.025 0 000-2.05h-5.415l-1.024-6.154h23.17a2.394 2.394 0 002.39-2.392V8.34a2.394 2.394 0 00-2.39-2.393zM27.15 62.002l1.024-6.152h14.654l1.024 6.152H27.15z"/><path d="M65 45.254V12.44c0-.566-.459-1.025-1.024-1.025H7.023c-.565 0-1.024.459-1.024 1.025v10.29a1.025 1.025 0 102.049 0v-9.264H62.95v30.761H8.048V27.2a1.025 1.025 0 10-2.049 0v18.054c0 .566.459 1.025 1.024 1.025h56.953c.565 0 1.024-.46 1.024-1.025zM34.476 50.04a1.025 1.025 0 102.05 0 1.025 1.025 0 00-2.05 0z"/><path d="M32.567 36.964a1.021 1.021 0 001.138-.35l3.804-4.984 6.013-1.139a1.025 1.025 0 00.315-1.9L33.29 22.61a1.023 1.023 0 00-1.53.9L31.868 36c.004.438.285.825.7.964zm7.827-7.968l-3.65.692a1.017 1.017 0 00-.624.385l-2.23 2.92-.065-7.723 6.57 3.726z"/></g><defs><clipPath id="clip0"><path fill="#fff" transform="translate(.536)" d="M0 0h69.927v70H0z"/></clipPath></defs></svg>