<svg width="71" height="70" fill="none" xmlns="http://www.w3.org/2000/svg"><path d="M62.136 4.033h-4.007a1.025 1.025 0 000 2.051h4.007a1.025 1.025 0 000-2.05zm0 8.067h-4.007a1.025 1.025 0 000 2.05h4.007a1.025 1.025 0 000-2.05zM8.718 65.898h6.222c.566 0 1.024-.459 1.024-1.025v-7.93c0-.566-.458-1.025-1.024-1.025H8.718c-.566 0-1.025.459-1.025 1.025v7.93c0 .566.459 1.025 1.025 1.025zm1.024-7.93h4.174v5.88H9.742v-5.88zm25.305-38.862c-5.118 0-9.282 4.168-9.282 9.292v.757h-.688a2.394 2.394 0 00-2.39 2.393v11.484a5.13 5.13 0 005.121 5.127h14.477a5.13 5.13 0 005.122-5.127V31.548a2.394 2.394 0 00-2.39-2.393h-.689v-.757c0-5.123-4.163-9.292-9.281-9.292zm-7.233 9.292c0-3.993 3.244-7.24 7.233-7.24 3.988 0 7.233 3.247 7.233 7.24v.757h-2.05v-.757a5.193 5.193 0 00-5.184-5.19 5.193 5.193 0 00-5.185 5.19v.757h-2.048v-.757zm10.368 0v.757h-6.271v-.757a3.142 3.142 0 013.136-3.14 3.141 3.141 0 013.135 3.14zm6.835 2.808c.188 0 .341.153.341.342v1.128H34.091a1.025 1.025 0 000 2.05h11.267v8.306a3.078 3.078 0 01-3.073 3.076H27.808a3.078 3.078 0 01-3.073-3.076v-8.305h4.576a1.025 1.025 0 000-2.051h-4.576v-1.128c0-.189.153-.342.342-.342h19.94z" fill="#FFF"/><path d="M34.09 42.632v1.05a1.025 1.025 0 102.049 0v-1.05a3.355 3.355 0 002.322-3.189 3.352 3.352 0 00-3.346-3.35 3.352 3.352 0 00-3.346 3.35c0 1.49.976 2.755 2.321 3.189zm1.025-4.487a1.3 1.3 0 010 2.597 1.3 1.3 0 010-2.597z" fill="#FFF"/><path d="M65.572 30.625a4.447 4.447 0 00-4.284 3.281h-5.445a20.737 20.737 0 00-3.526-10.564 1.024 1.024 0 10-1.698 1.148A18.718 18.718 0 0153.826 35c0 10.366-8.424 18.799-18.78 18.799-10.354 0-18.779-8.433-18.779-18.799s8.425-18.799 18.78-18.799c4.68 0 9.165 1.734 12.626 4.883a1.026 1.026 0 001.378-1.518 20.766 20.766 0 00-8.951-4.794v-4.313c0-.189.153-.342.341-.342h9.728v6.084c0 1.093.888 1.983 1.98 1.983h12.505c1.092 0 1.98-.89 1.98-1.983V1.982A1.984 1.984 0 0064.654 0H52.149c-1.092 0-1.98.89-1.98 1.982v6.084h-9.727a2.394 2.394 0 00-2.39 2.393v3.909a20.917 20.917 0 00-6.146.02v-3.929a2.394 2.394 0 00-2.39-2.393h-8.059V2.393A2.394 2.394 0 0019.067 0H4.59A2.394 2.394 0 002.2 2.393v1.982a1.025 1.025 0 102.049 0V2.393c0-.189.153-.342.341-.342h14.477c.189 0 .342.153.342.342v9.091H4.249V9.16a1.025 1.025 0 10-2.049 0v2.331a2.117 2.117 0 00-1.98 2.11c0 .448.37 1.301.592 1.69a4.193 4.193 0 003.778 2.346h14.497a4.198 4.198 0 003.761-2.311c.298-.623.59-1.254.59-1.725 0-1.122-.877-2.04-1.98-2.11v-1.374h8.057c.188 0 .342.153.342.342v4.347c-8.642 2.227-15.131 9.88-15.61 19.1H8.942a4.447 4.447 0 00-4.284-3.281A4.446 4.446 0 00.22 35.068a4.446 4.446 0 004.438 4.444 4.447 4.447 0 004.35-3.555h5.234c.42 9.28 6.93 17 15.615 19.237v4.347a.342.342 0 01-.342.342h-9.454v-6.084a1.984 1.984 0 00-1.98-1.983H5.576c-1.092 0-1.98.89-1.98 1.983v14.219c0 1.093.888 1.982 1.98 1.982h12.505c1.092 0 1.98-.89 1.98-1.982v-6.084h9.454a2.394 2.394 0 002.39-2.393v-3.928a20.888 20.888 0 006.146.019v3.909a2.394 2.394 0 002.39 2.393h11.093v5.673A2.394 2.394 0 0053.924 70h8.954a2.394 2.394 0 002.39-2.393v-3.535a1.025 1.025 0 10-2.048 0v3.535a.342.342 0 01-.342.342h-8.954a.342.342 0 01-.341-.342V54.21c0-.189.153-.342.341-.342h8.954c.188 0 .342.154.342.342v4.717a1.025 1.025 0 102.048 0V54.21a2.394 2.394 0 00-2.39-2.393h-8.954a2.394 2.394 0 00-2.39 2.393v5.674H40.441a.342.342 0 01-.341-.342v-4.313c8.753-2.192 15.329-9.942 15.752-19.271h5.37a4.447 4.447 0 004.35 3.555 4.446 4.446 0 004.438-4.444 4.446 4.446 0 00-4.439-4.443zM52.216 2.051h12.368v6.015H52.217V2.051zm0 8.066h12.368v6.016H52.217v-6.016zm-44.28 5.469H4.59c-.83 0-1.574-.462-1.943-1.206l-.372-.75a.066.066 0 01.059-.095h5.602v2.05zm5.735 0H9.986v-2.05h3.688v2.05zm7.717-1.928c0 .01-.002.02-.007.03l-.36.71a2.16 2.16 0 01-1.935 1.188H15.72v-2.05h5.602c.037 0 .066.029.066.065v.057zM4.66 37.46a2.394 2.394 0 01-2.39-2.393 2.394 2.394 0 012.39-2.392 2.394 2.394 0 012.39 2.392 2.394 2.394 0 01-2.39 2.393zm13.354 30.488H5.645V53.867h12.368V67.95zM65.57 37.461a2.394 2.394 0 01-2.39-2.393 2.394 2.394 0 012.39-2.392 2.394 2.394 0 012.39 2.392 2.394 2.394 0 01-2.39 2.393z" fill="#FFF"/><path d="M54.666 6.084a1.025 1.025 0 10-.001-2.05 1.025 1.025 0 000 2.05zm0 8.066a1.025 1.025 0 10-.001-2.05 1.025 1.025 0 000 2.05zm3.735 52.432a1.025 1.025 0 100-2.05 1.025 1.025 0 000 2.05z" fill="#FFF"/></svg>