<svg width="70" height="66" fill="none" xmlns="http://www.w3.org/2000/svg"><path d="M69.691 45.865l-4.828-4.828a1.054 1.054 0 10-1.492 1.491l.673.672-16.21 16.21-5.782-5.782 16.21-16.21 1.652 1.652a1.054 1.054 0 101.491-1.49l-2.392-2.393c-1.895-1.944-3.14-4.158-4.895-6.236 2.004-2.692-.117-6.633-3.456-6.47.11-2.344-1.893-4.358-4.245-4.247.11-2.343-1.9-4.36-4.249-4.246.182-3.868-4.653-5.608-7.168-2.814l-.249-.249a4.062 4.062 0 00-5.738 0 4.048 4.048 0 00-1.181 3.065c-2.349-.112-4.36 1.893-4.249 4.247a4.052 4.052 0 00-2.662.831c-1.433-.505-3-.322-4.389.533-1.711 1.054-2.782 2.888-2.809 4.799l-1.194 9.245-12.22 12.22a1.054 1.054 0 000 1.491l17.7 17.701a1.05 1.05 0 001.492 0l10.684-10.684a1.054 1.054 0 000-1.49l-1.795-1.796c2.015-2.015 4.036-3.036 6.61-4.198 2.553 1.154 4.612 2.201 6.61 4.198l-1.795 1.795a1.055 1.055 0 000 1.491l10.684 10.684a1.052 1.052 0 001.491 0l17.701-17.7a1.054 1.054 0 000-1.492zm-18.835-21.28c1.365.002 2.337 1.488 1.782 2.739-.847-.865-1.71-1.715-2.566-2.572l.784-.166zm-4.247-4.247c1.378.002 2.335 1.483 1.782 2.738-.906-.887-1.93-1.686-3.077-2.24a1.93 1.93 0 011.295-.497zM18.013 28.16l-.248-.248a1.95 1.95 0 010-2.755c.38-.38.878-.57 1.377-.57.5 0 .998.19 1.378.57l.248.248-1.378 1.377-1.377 1.378zm12.492-15.744c.38-.38.879-.57 1.377-.57.5 0 .998.19 1.378.57l.248.249-2.755 2.755-.248-.248a1.95 1.95 0 010-2.756zm-4.818 5.625c0-.52.203-1.01.571-1.378.38-.38.879-.57 1.378-.57.499 0 .998.19 1.377.57l.249.249-1.378 1.377-1.378 1.378-.248-.248a1.936 1.936 0 01-.57-1.378zm-2.298 2.3c.499 0 .998.19 1.378.569l.248.248-2.756 2.756-.248-.249a1.95 1.95 0 010-2.755c.38-.38.879-.57 1.378-.57zm-5.75 1.055c.402-.248 1.102-.566 1.934-.483a4.076 4.076 0 00-.235 1.57 4.106 4.106 0 00-3.489 1.682c.11-1.089.786-2.15 1.79-2.768zm1.116 41.424L2.545 46.61l1.92-1.918 16.21 16.21-1.92 1.918zM39.7 46.697a13.539 13.539 0 00-2.353-1.163c1.05-.756 1.938-1.689 2.849-2.6a1.055 1.055 0 10-1.492-1.49c-1.279 1.278-2.528 2.516-4.173 3.334-2.882 1.44-5.313 2.498-7.632 4.818l-8.966-8.967a1.054 1.054 0 10-1.491 1.492l11.506 11.506-5.782 5.783L5.956 43.2l5.782-5.782 1.045 1.044a1.054 1.054 0 101.49-1.491l-1.043-1.044 1.044-1.045c.165-.164.27-.38.3-.61l.805-6.223c.384.958 1.175 1.635 1.886 2.346.413.413 1.09.406 1.494.002l17.98-17.981c1.758-1.757 4.52.993 2.757 2.756a1.051 1.051 0 000 1.491c.412.412 1.08.412 1.491 0 1.777-1.777 4.532.978 2.755 2.755a1.052 1.052 0 00-.309.746c0-.244-8.377-.13-9.054-.13-4.591 0-5.353 6.799-.817 7.684l5.229 1.549a5.14 5.14 0 012.17 1.291l4.314 4.314-3.044 3.044a1.054 1.054 0 101.491 1.492l3.79-3.79a1.054 1.054 0 000-1.491l-5.06-5.06a7.256 7.256 0 00-3.062-1.822l-5.28-1.564c-1.946-.576-2.128-3.538.269-3.538h7.492c2.035 0 3.776 1.166 5.167 2.557 0 0 4.574 4.593 4.883 4.939 1.803 2.005 2.956 4.394 4.85 6.287L43.1 49.596c-1.062-1.062-2.116-2.1-3.401-2.9zM51.245 62.82l-1.92-1.919 16.21-16.21 1.92 1.92-16.21 16.21zM35 4.899c.582 0 1.054-.472 1.054-1.055V1.688a1.054 1.054 0 10-2.109 0v2.156c0 .583.472 1.055 1.055 1.055zm-5.946.39a1.055 1.055 0 101.932-.845l-.864-1.975a1.054 1.054 0 10-1.932.845l.864 1.975zM25.15 8.572a1.051 1.051 0 001.49-.058 1.055 1.055 0 00-.059-1.49L25 5.56a1.054 1.054 0 10-1.432 1.549l1.582 1.463zm14.408-2.74a1.055 1.055 0 001.389-.544l.864-1.975a1.054 1.054 0 10-1.933-.844l-.864 1.975c-.233.533.01 1.155.544 1.388zm4.576 3.02c.256 0 .513-.092.716-.28l1.583-1.463A1.054 1.054 0 1045 5.559l-1.583 1.465a1.055 1.055 0 00.716 1.828z" fill="#fff"/><path d="M22.448 54.893a1.188 1.188 0 10-.547-2.312 1.188 1.188 0 00.547 2.312z" fill="#fff"/></svg>