<svg width="71" height="70" fill="none" xmlns="http://www.w3.org/2000/svg"><path d="M69.668 63.53h-1.044v-3.374a1.025 1.025 0 10-2.05 0v3.373H41.032V46.601c0-.197.16-.356.355-.356H66.22c.196 0 .355.16.355.356v8.77a1.025 1.025 0 102.049 0v-8.77a2.408 2.408 0 00-2.404-2.407H54.827v-5.603c0-.566-.459-1.026-1.025-1.026H38.794a3.248 3.248 0 00-2.04-2.042v-2.536h18.014a2.409 2.409 0 002.404-2.407V16.494a1.025 1.025 0 10-2.05 0V30.58a.355.355 0 01-.354.357H16.69a.356.356 0 01-.355-.357V6.826c0-.196.16-.355.355-.355h1.38c.448 0 .844-.292.977-.72L20.126 2.3a.352.352 0 01.338-.248h9.009c.156 0 .292.1.339.25l1.077 3.45c.134.429.53.72.978.72h22.9c.197 0 .356.16.356.356v4.882a1.025 1.025 0 102.049 0V6.826a2.408 2.408 0 00-2.404-2.406h-.355V2.407A2.408 2.408 0 0052.009 0H20.464a2.39 2.39 0 00-2.294 1.689l-.853 2.731h-.627a2.408 2.408 0 00-2.403 2.406V30.58a2.408 2.408 0 002.403 2.407h18.015v2.536a3.247 3.247 0 00-2.04 2.042h-15.01c-.565 0-1.024.46-1.024 1.026v5.603H5.238a2.408 2.408 0 00-2.403 2.407v3.063a1.025 1.025 0 102.048 0v-3.063c0-.197.16-.356.355-.356h24.834c.196 0 .355.16.355.356v16.928H4.883v-9.08a1.025 1.025 0 10-2.048 0v9.08H1.79c-.566 0-1.024.46-1.024 1.026v3.039A2.408 2.408 0 003.17 70h28.972a2.408 2.408 0 002.404-2.406v-3.039c0-.566-.459-1.025-1.024-1.025h-1.046V46.6a2.408 2.408 0 00-2.404-2.406H18.68v-4.578h13.985a3.237 3.237 0 003.064 2.21 3.237 3.237 0 003.065-2.21h13.984v4.578H41.386a2.408 2.408 0 00-2.404 2.407V63.53h-1.045c-.566 0-1.025.459-1.025 1.025v3.039A2.408 2.408 0 0039.316 70H68.29a2.408 2.408 0 002.404-2.406v-3.039c0-.566-.459-1.025-1.025-1.025zM52.364 2.407V4.42H32.62l-.74-2.37h20.129c.196 0 .355.16.355.357zM32.497 67.594c0 .196-.16.355-.355.355H3.17a.356.356 0 01-.356-.355V65.58h29.683v2.014zm3.232-27.819a1.185 1.185 0 010-2.369 1.185 1.185 0 010 2.37zm32.915 27.819c0 .196-.16.355-.355.355H39.316a.356.356 0 01-.355-.355V65.58h29.683v2.014z" fill="#015D9D"/><path d="M19.726 22.097c-.566 0-1.025.46-1.025 1.026v4.42c0 .565.459 1.024 1.024 1.024h11.038c.565 0 1.024-.459 1.024-1.025v-4.42c0-.566-.459-1.025-1.024-1.025H19.725zm10.012 4.42H20.75v-2.369h8.988v2.369z" fill="#015D9D"/></svg>