<svg width="71" height="70" fill="none" xmlns="http://www.w3.org/2000/svg"><g clip-path="url(#clip0)" fill="#FFF"><path d="M70.079 25.707V16.95c0-1.54-1.753-2.688-5.358-3.51-2.48-.566-5.625-.922-9.021-1.03V3.76c0-.566-.459-1.025-1.025-1.025H38.728A3.762 3.762 0 0035.115 0a3.763 3.763 0 00-3.613 2.734H16.498c-.566 0-1.024.46-1.024 1.026v8.626c-3.756.067-7.256.435-9.966 1.053-3.604.822-5.357 1.97-5.357 3.51v8.758c0 .969.694 1.782 2.106 2.457C.846 28.84.151 29.652.151 30.622v8.758c0 .969.694 1.782 2.106 2.457-1.411.675-2.106 1.488-2.106 2.457v8.758c0 1.54 1.753 2.688 5.357 3.51 2.77.632 6.364 1.002 10.213 1.058v8.621c0 .567.459 1.026 1.024 1.026h14.757A3.763 3.763 0 0035.115 70a3.762 3.762 0 003.613-2.734h15.947c.566 0 1.025-.46 1.025-1.026v-8.649c3.396-.108 6.54-.464 9.022-1.03 3.604-.822 5.357-1.97 5.357-3.51v-8.758c0-.97-.695-1.782-2.106-2.457 1.412-.675 2.106-1.488 2.106-2.457v-8.758c0-.969-.695-1.782-2.106-2.456 1.412-.675 2.106-1.49 2.106-2.458zm-15.404-7.733c.566 0 1.025-.459 1.025-1.025V14.46c3.005.1 5.813.4 8.073.87 3.25.677 4.059 1.415 4.226 1.619-.167.204-.977.942-4.226 1.618-2.807.585-6.461.907-10.289.907-3.827 0-7.48-.322-10.288-.907-3.25-.676-4.059-1.414-4.227-1.618.168-.204.978-.942 4.227-1.619 2.807-.584 6.461-.906 10.288-.906h.167v2.525c0 .566.459 1.025 1.024 1.025zM35.115 2.051a1.71 1.71 0 010 3.418 1.71 1.71 0 010-3.418zM2.2 25.666V19.38c.84.41 1.94.769 3.308 1.08 3.014.688 7.004 1.066 11.237 1.066 1.731 0 3.434-.063 5.06-.189a1.025 1.025 0 00-.156-2.044 64.264 64.264 0 01-4.904.182c-3.827 0-7.48-.322-10.288-.907-3.25-.676-4.059-1.414-4.227-1.618.168-.204.978-.942 4.227-1.619 2.494-.519 5.658-.83 9.017-.894v2.513a1.025 1.025 0 102.049 0v-2.52c3.542.04 6.894.356 9.51.901 3.273.682 4.07 1.425 4.23 1.623-.251.337-1.631 1.217-5.604 1.869a1.025 1.025 0 00.331 2.024c2.323-.381 4.085-.865 5.3-1.458v6.278c-.07.108-.637.812-3.545 1.501l-.038.01c-.212.05-.436.099-.673.148-2.808.585-6.462.907-10.288.907-3.827 0-7.481-.322-10.289-.907-.237-.049-.46-.099-.672-.149l-.041-.01c-2.906-.688-3.473-1.392-3.544-1.5zm3.313 3.552c3.012.687 7.001 1.065 11.232 1.065 4.231 0 8.22-.378 11.233-1.065 2.47.614 3.133 1.22 3.282 1.403-.168.204-.977.942-4.226 1.618-2.808.585-6.462.907-10.289.907s-7.48-.322-10.288-.907c-3.25-.676-4.059-1.414-4.227-1.618.15-.182.812-.79 3.283-1.403zm0 13.672c3.012.687 7.001 1.065 11.232 1.065 4.231 0 8.22-.378 11.233-1.065 2.47.614 3.133 1.22 3.282 1.403-.168.203-.977.941-4.226 1.618-2.808.585-6.462.907-10.289.907s-7.48-.322-10.288-.907c-3.25-.677-4.059-1.415-4.227-1.618.15-.182.812-.79 3.283-1.403zm.944 11.78c-3.531-.736-4.18-1.544-4.257-1.66v-6.288c.84.41 1.94.769 3.308 1.081 3.014.687 7.004 1.066 11.237 1.066 4.233 0 8.224-.379 11.237-1.066 1.368-.312 2.469-.671 3.309-1.08v6.287c-.077.116-.726.924-4.257 1.66-2.808.584-6.462.906-10.289.906s-7.48-.322-10.288-.907zm28.658 13.28a1.71 1.71 0 010-3.419 1.71 1.71 0 010 3.418zM68.03 53.01c-.077.116-.726.924-4.257 1.66-2.808.584-6.462.906-10.289.906-1.037 0-2.073-.023-3.078-.07a1.025 1.025 0 00-.095 2.049 70.41 70.41 0 003.173.072l.167-.001v7.589H38.728a3.762 3.762 0 00-3.613-2.735 3.762 3.762 0 00-3.613 2.735H17.77v-7.596c3.849-.056 7.444-.426 10.212-1.058 3.605-.822 5.357-1.97 5.357-3.51v-8.758c0-.97-.694-1.782-2.105-2.457 1.411-.675 2.105-1.488 2.105-2.457a1.025 1.025 0 00-2.047-.042c-.067.103-.626.81-3.54 1.5l-.047.012c-.212.05-.435.1-.671.149-2.808.584-6.462.906-10.289.906s-7.48-.322-10.288-.906c-.236-.05-.459-.1-.67-.149-.017-.005-.034-.008-.052-.012-2.898-.689-3.464-1.391-3.535-1.499v-6.287c.84.41 1.94.768 3.308 1.08 3.014.687 7.004 1.066 11.237 1.066 4.233 0 8.224-.379 11.237-1.066 1.368-.312 2.469-.67 3.309-1.08V35a1.025 1.025 0 102.048 0v-4.38c0-.968-.694-1.781-2.105-2.456 1.411-.675 2.105-1.488 2.105-2.457V16.95c0-1.54-1.752-2.688-5.357-3.51-2.828-.645-6.517-1.018-10.46-1.062V4.785h13.98a3.763 3.763 0 003.613 2.735 3.762 3.762 0 003.613-2.735H53.65v7.589l-.167-.001c-4.233 0-8.223.379-11.236 1.066-3.605.822-5.358 1.97-5.358 3.51v8.758c0 .969.694 1.782 2.106 2.457-1.411.675-2.106 1.488-2.106 2.457v8.758c0 .969.694 1.782 2.106 2.457-1.411.675-2.106 1.488-2.106 2.457v8.758c0 2.029 3.112 3.43 9.25 4.164a1.025 1.025 0 00.243-2.036c-5.128-.614-7.21-1.71-7.444-2.165v-6.292c.84.41 1.94.769 3.309 1.08 3.013.688 7.004 1.067 11.236 1.067 4.233 0 8.224-.379 11.237-1.066 1.368-.312 2.469-.671 3.309-1.08v6.287zM68 44.293c-.168.203-.978.941-4.227 1.618-2.808.585-6.462.907-10.289.907-3.826 0-7.48-.322-10.288-.907-3.25-.677-4.059-1.415-4.227-1.618.15-.182.812-.79 3.283-1.403 3.012.687 7.002 1.065 11.232 1.065 4.231 0 8.22-.378 11.233-1.065 2.471.614 3.133 1.22 3.282 1.403zm.03-4.954c-.071.107-.637.81-3.537 1.498l-.05.012c-.21.05-.434.1-.67.149-2.808.584-6.462.906-10.289.906-3.826 0-7.48-.322-10.288-.906-.236-.05-.459-.1-.67-.149l-.053-.013c-2.897-.688-3.463-1.39-3.534-1.497V33.05c.84.41 1.94.768 3.309 1.08 3.013.688 7.004 1.066 11.237 1.066 4.233 0 8.223-.378 11.237-1.066 1.368-.312 2.468-.67 3.308-1.08v6.288zM68 30.62c-.168.204-.978.941-4.227 1.618-2.808.585-6.462.907-10.289.907-3.826 0-7.48-.322-10.288-.907-3.25-.677-4.059-1.414-4.227-1.618.15-.182.812-.79 3.283-1.403 3.012.687 7.002 1.065 11.232 1.065 4.231 0 8.22-.378 11.233-1.065 2.471.614 3.133 1.22 3.282 1.403zm.03-4.955c-.071.108-.638.812-3.545 1.501l-.04.01c-.212.05-.435.1-.672.149-2.808.584-6.462.906-10.289.906-3.826 0-7.48-.322-10.288-.906-.237-.05-.46-.1-.672-.15l-.043-.01c-2.904-.688-3.471-1.392-3.542-1.5V19.38c.84.41 1.94.768 3.309 1.08 3.013.687 7.003 1.066 11.236 1.066 4.233 0 8.224-.379 11.237-1.066 1.368-.312 2.469-.67 3.309-1.08v6.287z"/><path d="M6.725 26.462a1.025 1.025 0 10-.002-2.05 1.025 1.025 0 00.002 2.05zm.009-2.939a1.025 1.025 0 100-2.05 1.025 1.025 0 000 2.05zm-.009 16.611a1.025 1.025 0 10-.002-2.05 1.025 1.025 0 00.002 2.05zm.009-2.94a1.025 1.025 0 100-2.05 1.025 1.025 0 000 2.05zm-.009 16.612a1.025 1.025 0 10-.002-2.05 1.025 1.025 0 00.002 2.05zm.009-2.94a1.025 1.025 0 100-2.05 1.025 1.025 0 000 2.05zm37.14-24.404a1.025 1.025 0 10-.001-2.05 1.025 1.025 0 000 2.05zm.009-2.939a1.025 1.025 0 10-.001-2.05 1.025 1.025 0 000 2.05zm-.009 16.611a1.025 1.025 0 10-.001-2.05 1.025 1.025 0 000 2.05zm.009-2.94a1.025 1.025 0 10-.001-2.05 1.025 1.025 0 000 2.05zm-.009 16.612a1.025 1.025 0 10-.001-2.05 1.025 1.025 0 000 2.05zm.009-2.94a1.025 1.025 0 10-.001-2.05 1.025 1.025 0 000 2.05z"/></g><defs><clipPath id="clip0"><path fill="#fff" transform="translate(.151)" d="M0 0h69.927v70H0z"/></clipPath></defs></svg>