<svg width="71" height="70" fill="none" xmlns="http://www.w3.org/2000/svg"><path d="M66.206 45.208a14.549 14.549 0 00-13.375-3.913l-4.714-4.72L62.52 22.157l6.307-6.314a5.544 5.544 0 001.627-3.945 5.545 5.545 0 00-1.627-3.946L62.52 1.639a5.533 5.533 0 00-3.942-1.63 5.533 5.533 0 00-3.942 1.63L33.927 22.37l-4.715-4.72a14.583 14.583 0 00-3.91-13.388C21.384.338 15.682-1.001 10.423.768a1.117 1.117 0 00-.435 1.848l7.678 7.685-1.426 5.417-5.412 1.425L3.15 9.458a1.114 1.114 0 00-1.846.434c-1.768 5.266-.431 10.976 3.49 14.9a14.549 14.549 0 0013.374 3.913l2.349 2.351a1.112 1.112 0 001.577 0 1.117 1.117 0 000-1.579l-2.791-2.794a1.114 1.114 0 00-1.077-.29 12.31 12.31 0 01-11.855-3.18 12.214 12.214 0 01-3.415-10.79l6.746 6.753c.28.28.69.391 1.073.29l6.66-1.754c.39-.102.693-.406.795-.795l1.678-6.376 4.244-4.248a12.344 12.344 0 012.75 11.416c-.103.385.007.796.289 1.077l5.158 5.163-25.17 25.197a1 1 0 00-.082.092l-.019.025-.053.076-.018.03a.992.992 0 00-.09.194l-.008.02L.603 68.52a1.118 1.118 0 001.411 1.412l18.919-6.312.02-.009a1.013 1.013 0 00.192-.09l.03-.017a1.04 1.04 0 00.076-.054l.025-.018a1.11 1.11 0 00.093-.082l25.17-25.197 5.158 5.163c.282.282.692.392 1.076.29a12.31 12.31 0 0111.856 3.18 12.215 12.215 0 013.415 10.788l-6.746-6.754a1.115 1.115 0 00-1.073-.29l-6.66 1.756a1.116 1.116 0 00-.795.796l-1.676 6.375-4.245 4.25a12.345 12.345 0 01-2.752-11.416 1.118 1.118 0 00-.288-1.078l-2.792-2.794a1.115 1.115 0 10-1.578 1.579l2.349 2.35a14.583 14.583 0 004.186 13.66 1.098 1.098 0 00.215.2 14.392 14.392 0 009.729 3.79c1.555 0 3.128-.251 4.663-.767a1.116 1.116 0 00.434-1.849l-7.677-7.685 1.424-5.417 5.411-1.427 7.677 7.685a1.115 1.115 0 001.847-.435c1.766-5.264.429-10.972-3.49-14.896zm-47.3-36.822L12.95 2.422a12.163 12.163 0 019.564 2.354l-3.607 3.61zm37.308-5.168a3.317 3.317 0 012.365-.975c.896 0 1.736.346 2.364.975l6.306 6.313a3.353 3.353 0 010 4.733l-5.517 5.523L50.697 8.741l5.517-5.523zM3.425 67.108l1.877-5.636 3.754 3.758-5.63 1.878zm7.997-2.668l-5.331-5.337 2.364-7.1 10.06 10.07-7.093 2.367zm9.158-3.458L9.545 49.936l35.37-35.407 4.729 4.733-33.006 33.04a1.117 1.117 0 00.789 1.907c.285 0 .57-.109.788-.327l33.006-33.04 2.364 2.366a1.112 1.112 0 001.578 0 1.117 1.117 0 000-1.579l-3.153-3.156-5.517-5.523 2.626-2.63 11.035 11.046L20.58 60.983zm37.474 6.596a12.166 12.166 0 01-9.565-2.352l3.607-3.612 5.958 5.964z" fill="#015D9D"/></svg>