<svg width="16" height="15" fill="none" xmlns="http://www.w3.org/2000/svg"><g clip-path="url(#clip0)"><path d="M12.452 14.418h-7.96a3.518 3.518 0 01-3.513-3.516V4.098A3.518 3.518 0 014.491.582h7.96a3.518 3.518 0 013.513 3.516v6.804a3.518 3.518 0 01-3.512 3.516zM4.492 1.754A2.345 2.345 0 002.15 4.098v6.804a2.345 2.345 0 002.341 2.344h7.96a2.345 2.345 0 002.342-2.344V4.098a2.345 2.345 0 00-2.341-2.344h-7.96zm6.125 7.783l2.893-2.212a.586.586 0 00-.711-.931L9.906 8.606a2.345 2.345 0 01-2.837.001l-2.804-2.18a.585.585 0 10-.718.924l2.805 2.183.005.004a3.505 3.505 0 002.13.718c.75 0 1.502-.24 2.13-.719z" fill="#fff"/></g><defs><clipPath id="clip0"><path fill="#fff" transform="translate(.98)" d="M0 0h14.984v15H0z"/></clipPath></defs></svg>