<svg width="16" height="15" fill="none" xmlns="http://www.w3.org/2000/svg"><g clip-path="url(#clip0)"><path d="M9.867 15C3.863 14.955-3.17 6.198 1.97 1.048a8.23 8.23 0 01.575-.53c.42-.354.952-.536 1.498-.513A2.17 2.17 0 015.5.65l.99 1.03c1.072 1.05.692 2.942-.705 3.49-.432.176-.708.333-.782.386-.545.556-.892 1.46 1.147 3.504.662.664 1.642 1.546 2.51 1.546.351 0 .675-.15.986-.456.041-.06.181-.298.362-.75.542-1.407 2.436-1.798 3.488-.718l1.017.985.007.007a2.186 2.186 0 01.13 2.947 8.203 8.203 0 01-.492.54C12.947 14.377 11.48 15 9.867 15zM3.952 1.173c-.231 0-.464.08-.656.242-.17.143-.336.296-.493.455-2.74 2.786-1.234 6.591 1.399 9.197 2.609 2.598 6.391 4.019 9.127 1.267.148-.148.29-.304.423-.463a1.012 1.012 0 00-.057-1.366l-1.016-.985a.947.947 0 00-.881-.27.952.952 0 00-.704.587c-.082.204-.367.888-.602 1.124-.54.542-1.157.817-1.833.817-1.288 0-2.46-1.01-3.337-1.89C3.99 8.61 2.452 6.43 4.189 4.714c.246-.247.946-.544 1.154-.63a.948.948 0 00.579-.7.958.958 0 00-.272-.888l-.989-1.03a1.002 1.002 0 00-.709-.293zm10.623 5.83a.585.585 0 01-.582-.533 5.844 5.844 0 00-5.295-5.3.586.586 0 01.105-1.168c3.291.247 6.11 3.069 6.356 6.363a.586.586 0 01-.584.638zm-4.559 0a.586.586 0 00.37-.742 2.369 2.369 0 00-1.44-1.48.585.585 0 10-.39 1.105c.334.119.604.397.72.746a.585.585 0 00.74.37zm2.3-.006a.586.586 0 00.496-.662 4.717 4.717 0 00-3.979-3.983c-.772-.08-.93 1.019-.165 1.16A3.54 3.54 0 0111.653 6.5a.586.586 0 00.662.497z" fill="#fff"/></g><defs><clipPath id="clip0"><path fill="#fff" transform="translate(.183)" d="M0 0h14.984v15H0z"/></clipPath></defs></svg>