<svg width="15" height="15" fill="none" xmlns="http://www.w3.org/2000/svg"><g clip-path="url(#clip0)"><path d="M11.94 1.841A6.212 6.212 0 007.506.001H7.5c-3.377-.069-6.34 2.905-6.27 6.28.09 2.383 2.382 5.41 4.167 7.735a2.735 2.735 0 002.11.984c.849 0 1.638-.383 2.164-1.05 1.324-1.646 4.184-5.605 4.098-7.67a6.25 6.25 0 00-1.83-4.439zM8.75 13.225c-.605.798-1.88.8-2.485.001-2.42-3.083-3.863-5.65-3.863-6.945 0-2.817 2.287-5.108 5.098-5.108h.007c2.807 0 5.09 2.291 5.09 5.108 0 1.309-1.402 3.84-3.847 6.944zM7.533 8.76a2.493 2.493 0 01-2.49-2.49c.136-3.303 4.843-3.302 4.98 0a2.493 2.493 0 01-2.49 2.49zm0-3.808A1.32 1.32 0 006.214 6.27c.073 1.75 2.565 1.749 2.637 0a1.32 1.32 0 00-1.318-1.318z" fill="#fff"/></g><defs><clipPath id="clip0"><path fill="#fff" d="M0 0h15v15H0z"/></clipPath></defs></svg>