<svg width="68" height="68" fill="none" xmlns="http://www.w3.org/2000/svg"><path d="M63.484 32.83v-.685c0-6.94-2.468-13.686-6.95-18.995C52.106 7.905 45.975 4.347 39.27 3.132a1.328 1.328 0 10-.473 2.614C51.563 8.06 60.828 19.162 60.828 32.145v.4h-2.656v-.4C58.172 18.816 47.328 7.973 34 7.973c-13.328 0-24.172 10.843-24.172 24.172v.398H7.172v-.398A26.743 26.743 0 0129.537 5.688a1.328 1.328 0 10-.44-2.62c-6.79 1.142-13.01 4.673-17.516 9.945a29.475 29.475 0 00-7.065 19.132v.684A6.42 6.42 0 000 38.95v8.966a6.415 6.415 0 006.408 6.407h3.728a3.986 3.986 0 003.41 1.927 3.989 3.989 0 003.985-3.985V34.602a3.989 3.989 0 00-5-3.852C13.252 19.534 22.605 10.63 34 10.63c11.395 0 20.748 8.904 21.47 20.12a3.989 3.989 0 00-5 3.853v3.315a1.328 1.328 0 002.655 0v-3.316a1.33 1.33 0 011.328-1.328 1.33 1.33 0 011.328 1.328v17.664a1.33 1.33 0 01-1.328 1.329 1.33 1.33 0 01-1.328-1.329v-3.059a1.328 1.328 0 00-2.656 0v3.06a3.989 3.989 0 005.312 3.755v.866a2.61 2.61 0 01-2.608 2.608H40.99a4.523 4.523 0 00-4.316-3.188h-5.312a4.52 4.52 0 00-4.516 4.516 4.52 4.52 0 004.516 4.516h5.312a4.523 4.523 0 004.316-3.188h12.184a5.27 5.27 0 005.264-5.264v-2.562h3.155A6.415 6.415 0 0068 47.918v-8.966a6.42 6.42 0 00-4.516-6.122zM9.562 51.668H6.409a3.756 3.756 0 01-3.752-3.751V38.95a3.756 3.756 0 013.751-3.75h3.154v16.47zm3.985-18.394a1.33 1.33 0 011.328 1.328v17.664a1.33 1.33 0 01-1.328 1.329 1.33 1.33 0 01-1.328-1.329V34.602a1.33 1.33 0 011.328-1.328zm23.126 29.41h-5.312a1.861 1.861 0 01-1.86-1.86c0-1.025.834-1.86 1.86-1.86h5.312c1.025 0 1.86.835 1.86 1.86 0 1.025-.835 1.86-1.86 1.86zm28.67-14.766a3.756 3.756 0 01-3.75 3.751h-3.156V35.201h3.155a3.756 3.756 0 013.752 3.751v8.966z" fill="#015D9D"/><path d="M34.115 2.66H34a1.328 1.328 0 000 2.657h.111a1.328 1.328 0 00.004-2.656zm18.621 39.836a1.337 1.337 0 00-.94-.39 1.34 1.34 0 00-.938.39 1.34 1.34 0 00-.39.939c0 .35.143.692.39.939.247.247.59.39.939.39.35 0 .692-.143.939-.39a1.34 1.34 0 00.389-.94c0-.348-.142-.691-.39-.938zM41.724 26.04H26.276a6.095 6.095 0 00-6.088 6.089v7.77a6.095 6.095 0 006.088 6.088h3.677l3 3.743c.25.312.627.494 1.026.497h.01c.396 0 .772-.176 1.024-.481l3.11-3.76h3.601a6.095 6.095 0 006.089-6.088v-7.77a6.095 6.095 0 00-6.089-6.088zm3.432 13.858a3.436 3.436 0 01-3.432 3.432h-4.227c-.395 0-.77.177-1.023.482l-2.468 2.984-2.378-2.968a1.328 1.328 0 00-1.037-.498h-4.315a3.436 3.436 0 01-3.432-3.432v-7.77a3.436 3.436 0 013.432-3.432h15.448a3.436 3.436 0 013.432 3.433v7.77z" fill="#015D9D"/><path d="M29.113 35.739a1.34 1.34 0 00-.94-.39 1.333 1.333 0 00-1.328 1.328 1.332 1.332 0 001.329 1.329c.35 0 .69-.142.939-.39.247-.246.389-.59.389-.938 0-.35-.142-.692-.39-.94zm5.844 0a1.338 1.338 0 00-.94-.39 1.332 1.332 0 00-1.328 1.328 1.332 1.332 0 001.329 1.329c.349 0 .691-.142.939-.39a1.34 1.34 0 00.389-.938c0-.35-.142-.692-.39-.94zm5.843 0a1.34 1.34 0 00-.939-.39 1.333 1.333 0 00-1.328 1.328 1.33 1.33 0 001.328 1.329c.35 0 .691-.142.94-.39a1.34 1.34 0 00.389-.938c0-.35-.143-.692-.39-.94z" fill="#015D9D"/></svg>