<svg width="70" height="50" fill="none" xmlns="http://www.w3.org/2000/svg"><path d="M65.899.797H4.102C1.84.797 0 2.743 0 5.134v40.474C0 48 1.84 49.945 4.102 49.945h61.797c2.261 0 4.101-1.946 4.101-4.337V5.134C70 2.743 68.16.797 65.899.797zm1.367 44.811c0 .798-.614 1.446-1.367 1.446H4.102c-.754 0-1.368-.648-1.368-1.446V5.135c0-.797.614-1.446 1.368-1.446h61.797c.754 0 1.367.649 1.367 1.446v40.474z" fill="#fff"/><path d="M63.164 6.58H6.836c-.755 0-1.367.647-1.367 1.445v34.692c0 .799.612 1.446 1.367 1.446h22.012c.755 0 1.367-.647 1.367-1.446 0-.798-.612-1.445-1.367-1.445H8.203V9.47h53.594v31.802H41.153c-.755 0-1.367.647-1.367 1.445 0 .799.612 1.446 1.367 1.446h22.011c.755 0 1.367-.647 1.367-1.446V8.025c0-.798-.612-1.446-1.367-1.446z" fill="#fff"/><path d="M10.938 29.113v2.04c0 .799.612 1.446 1.367 1.446h13.51c.756 0 1.368-.647 1.368-1.446v-2.04c0-2.786-1.255-5.337-3.347-6.94.29-.686.452-1.445.452-2.244v-2.04c0-3.048-2.345-5.528-5.228-5.528-2.882 0-5.227 2.48-5.227 5.527v2.041c0 .799.162 1.557.451 2.244-2.091 1.603-3.347 4.153-3.347 6.94zm5.63-11.225c0-1.453 1.117-2.636 2.492-2.636s2.493 1.183 2.493 2.636v2.041c0 1.454-1.118 2.636-2.493 2.636-1.374 0-2.493-1.182-2.493-2.636v-2.04zm-2.896 11.225c0-1.87.901-3.636 2.346-4.693a5.01 5.01 0 003.042 1.036 5.01 5.01 0 003.044-1.037c1.462 1.058 2.345 2.794 2.345 4.693v.596H13.672v-.595zm-1.367 9.267h13.51c.756 0 1.368-.646 1.368-1.445 0-.798-.612-1.445-1.367-1.445H12.305c-.755 0-1.367.647-1.367 1.445 0 .799.612 1.446 1.367 1.446zM35 15.252h22.695c.755 0 1.367-.647 1.367-1.445s-.612-1.446-1.367-1.446H35c-.755 0-1.367.648-1.367 1.446 0 .798.612 1.445 1.367 1.445zm0 11.565h22.695c.755 0 1.367-.648 1.367-1.446 0-.798-.612-1.445-1.367-1.445H35c-.755 0-1.367.647-1.367 1.445 0 .799.612 1.446 1.367 1.446zm0 5.782h22.695c.755 0 1.367-.647 1.367-1.446 0-.798-.612-1.445-1.367-1.445H35c-.755 0-1.367.647-1.367 1.445 0 .799.612 1.446 1.367 1.446zm22.695 2.891H46.348c-.755 0-1.367.647-1.367 1.445 0 .799.612 1.446 1.367 1.446h11.347c.755 0 1.367-.647 1.367-1.446 0-.798-.612-1.445-1.367-1.445zm-22.694 5.782H35c-.755 0-1.367.647-1.367 1.445 0 .799.613 1.446 1.368 1.446.755 0 1.367-.647 1.367-1.446 0-.798-.612-1.445-1.367-1.445z" fill="#fff"/></svg>