<svg width="45" height="45" fill="none" xmlns="http://www.w3.org/2000/svg"><path d="M8.327 26.032A2.638 2.638 0 007.031 28.3a2.64 2.64 0 002.637 2.637 2.641 2.641 0 002.486-1.758h6.83a2.64 2.64 0 012.637 2.636 2.64 2.64 0 01-2.637 2.637H8.437a4.4 4.4 0 00-4.394 4.395 4.4 4.4 0 004.394 4.394h8.79a.879.879 0 000-1.758h-8.79a2.64 2.64 0 01-2.636-2.636 2.64 2.64 0 012.636-2.637h10.547a4.4 4.4 0 004.395-4.395 4.4 4.4 0 00-4.395-4.394h-6.83a2.65 2.65 0 00-1.145-1.39l6.713-11.014a9.626 9.626 0 001.614-5.35C19.336 4.338 14.999 0 9.668 0 4.338 0 0 4.337 0 9.668c0 1.913.558 3.762 1.614 5.35l6.713 11.014zm1.341 3.148a.88.88 0 010-1.758.88.88 0 010 1.758zm0-27.422c4.362 0 7.91 3.548 7.91 7.91a7.874 7.874 0 01-1.348 4.42L9.668 24.854 3.086 14.057a7.873 7.873 0 01-1.328-4.389c0-4.362 3.548-7.91 7.91-7.91z" fill="#015D9D"/><path d="M9.668 14.063a4.4 4.4 0 004.395-4.395 4.4 4.4 0 00-4.395-4.395 4.4 4.4 0 00-4.395 4.395 4.4 4.4 0 004.395 4.395zm0-7.032a2.64 2.64 0 012.637 2.637 2.64 2.64 0 01-2.637 2.637 2.64 2.64 0 01-2.637-2.637 2.64 2.64 0 012.637-2.637zm25.664 7.559c-5.33 0-9.668 4.337-9.668 9.668a9.62 9.62 0 001.62 5.357l6.687 10.49c-.518.314-.92.8-1.124 1.38h-7.71a.879.879 0 000 1.757h7.71A2.64 2.64 0 0035.331 45a2.638 2.638 0 001.36-4.894l6.689-10.49A9.627 9.627 0 0045 24.257c0-5.331-4.337-9.668-9.668-9.668zm0 28.652a.88.88 0 010-1.758.88.88 0 010 1.758zm6.582-14.595L35.332 38.97 28.75 28.647a7.874 7.874 0 01-1.328-4.39c0-4.36 3.548-7.91 7.91-7.91s7.91 3.55 7.91 7.91c0 1.571-.46 3.089-1.328 4.39z" fill="#015D9D"/><path d="M35.332 19.863a4.4 4.4 0 00-4.395 4.395 4.4 4.4 0 004.395 4.394 4.4 4.4 0 004.395-4.394 4.4 4.4 0 00-4.395-4.395zm0 7.032a2.64 2.64 0 01-2.637-2.637 2.64 2.64 0 012.637-2.637 2.64 2.64 0 012.637 2.637 2.64 2.64 0 01-2.637 2.637zm-14.15 16.347a.879.879 0 100-1.758.879.879 0 000 1.758z" fill="#015D9D"/></svg>