<svg width="70" height="70" fill="none" xmlns="http://www.w3.org/2000/svg"><path d="M64.005 21.582h-2.947v-1.895l1.839-2.026a5.69 5.69 0 001.48-3.832V9.026a6.098 6.098 0 00-6.09-6.091h-2.803a6.098 6.098 0 00-6.09 6.09v4.804a5.69 5.69 0 001.48 3.832l1.84 2.026v1.895h-2.948a6.005 6.005 0 00-5.855 4.707 6.633 6.633 0 00-.92-.065H39.54v-2.318l2.106-2.32a6.276 6.276 0 001.633-4.227v-5.41a6.735 6.735 0 00-6.727-6.727 1.052 1.052 0 100 2.105 4.628 4.628 0 014.622 4.622v5.41c0 1.042-.386 2.04-1.086 2.812l-2.169 2.389c-.29.187-.483.514-.483.885v3.832c0 .58.47 1.052 1.052 1.052h4.505a4.52 4.52 0 014.514 4.514v6.604H22.44v-6.604a4.523 4.523 0 012.953-4.236c.081-.017.158-.043.231-.078.42-.13.867-.2 1.33-.2h4.505c.581 0 1.052-.471 1.052-1.053v-3.83c0-.373-.193-.7-.483-.886l-2.17-2.389a4.175 4.175 0 01-1.086-2.812v-5.41a4.628 4.628 0 014.623-4.622 1.052 1.052 0 100-2.105 6.735 6.735 0 00-6.727 6.727v5.41c0 1.566.58 3.067 1.633 4.227l2.105 2.32v2.318h-3.452a6.53 6.53 0 00-.867.059 6.004 6.004 0 00-5.853-4.7h-2.947v-1.896l1.839-2.026a5.69 5.69 0 001.48-3.832V9.026a6.098 6.098 0 00-6.09-6.091h-2.802a6.098 6.098 0 00-6.091 6.09v4.804a5.69 5.69 0 001.48 3.832l1.84 2.026v1.895H5.995A6.002 6.002 0 000 27.577v6.797c0 .582.471 1.053 1.052 1.053h16.373a1.052 1.052 0 100-2.105H2.105v-5.745a3.895 3.895 0 013.89-3.89h4c.581 0 1.052-.471 1.052-1.053v-3.401c0-.366-.187-.688-.47-.877l-1.916-2.11a3.59 3.59 0 01-.933-2.417V9.026a3.99 3.99 0 013.986-3.986h2.801a3.99 3.99 0 013.987 3.986v4.803a3.59 3.59 0 01-.934 2.418l-1.916 2.109c-.283.189-.47.511-.47.877v3.401c0 .582.471 1.053 1.052 1.053h4a3.896 3.896 0 013.828 3.203 6.627 6.627 0 00-3.727 5.953V40.5c0 .581.471 1.052 1.052 1.052h27.171c.581 0 1.053-.471 1.053-1.052v-7.656c0-2.594-1.5-4.842-3.678-5.927a3.896 3.896 0 013.833-3.23h4c.58 0 1.052-.47 1.052-1.052v-3.401c0-.366-.187-.689-.47-.877l-1.916-2.11a3.59 3.59 0 01-.934-2.417V9.026a3.99 3.99 0 013.986-3.986h2.802a3.99 3.99 0 013.986 3.986v4.803c0 .896-.331 1.755-.934 2.418l-1.915 2.109c-.283.189-.47.511-.47.877v3.401c0 .582.47 1.053 1.052 1.053h4a3.895 3.895 0 013.89 3.89v5.745h-15.14a1.052 1.052 0 100 2.105h16.193c.581 0 1.052-.471 1.052-1.053v-6.797a6.002 6.002 0 00-5.995-5.995zM45.583 54.888a1.052 1.052 0 00-.83-.713l-5.749-.944-2.674-5.176a1.053 1.053 0 00-1.87 0l-2.673 5.176-5.749.944a1.053 1.053 0 00-.578 1.778l4.096 4.142-.879 5.759a1.052 1.052 0 001.513 1.1l5.205-2.616 5.205 2.615a1.051 1.051 0 001.513-1.099l-.879-5.759 4.096-4.142c.277-.28.375-.69.253-1.065zm-6.217 4.103c-.234.237-.342.57-.292.899l.652 4.268-3.858-1.939a1.053 1.053 0 00-.945 0l-3.858 1.939.652-4.268a1.052 1.052 0 00-.292-.899l-3.036-3.07 4.26-.699c.329-.054.612-.26.765-.555l1.981-3.836 1.982 3.836c.152.295.436.501.764.555l4.26.7-3.035 3.07zM68.619 47.15a1.052 1.052 0 00-.83-.713l-5.748-.944-2.674-5.175a1.053 1.053 0 00-1.87 0l-2.674 5.175-5.749.944a1.052 1.052 0 00-.578 1.778l4.096 4.142-.879 5.76a1.052 1.052 0 001.513 1.098l5.205-2.615 5.206 2.615a1.05 1.05 0 001.09-.089c.319-.23.482-.62.422-1.01l-.879-5.758 4.096-4.143c.277-.28.375-.69.253-1.065zm-6.217 4.104c-.233.236-.342.57-.292.898l.652 4.268-3.858-1.938a1.053 1.053 0 00-.945 0l-3.857 1.938.651-4.268a1.052 1.052 0 00-.292-.898l-3.036-3.07 4.26-.7c.329-.053.612-.26.765-.555l1.981-3.835 1.982 3.835c.153.296.436.502.764.556l4.26.699-3.035 3.07zM22.548 47.15a1.052 1.052 0 00-.83-.713l-5.749-.944-2.674-5.175a1.053 1.053 0 00-1.87 0l-2.673 5.175-5.749.944a1.052 1.052 0 00-.578 1.779l4.096 4.142-.879 5.758a1.052 1.052 0 001.513 1.1L12.36 56.6l5.205 2.615a1.052 1.052 0 001.513-1.099l-.879-5.758 4.096-4.142c.277-.28.375-.691.253-1.066zm-6.217 4.104c-.234.236-.342.57-.292.898l.651 4.268-3.857-1.938a1.052 1.052 0 00-.945 0L8.03 56.42l.652-4.268a1.052 1.052 0 00-.292-.898l-3.036-3.07 4.26-.7c.329-.053.612-.26.765-.555l1.982-3.835 1.981 3.835c.153.296.436.502.764.556l4.26.699-3.035 3.07z" fill="#fff"/></svg>