<svg width="71" height="70" fill="none" xmlns="http://www.w3.org/2000/svg"><g clip-path="url(#clip0)"><path d="M8.198 11.306a3.638 3.638 0 003.632 3.636 3.638 3.638 0 003.633-3.636A3.638 3.638 0 0011.83 7.67a3.638 3.638 0 00-3.632 3.636zm5.211 0a1.58 1.58 0 01-1.579 1.58 1.582 1.582 0 010-3.16c.871 0 1.58.708 1.58 1.58z" fill="#fff"/><path d="M69.052 20.728c.567 0 1.026-.46 1.026-1.028V2.911c0-.567-.459-1.027-1.026-1.027H56.43a1.027 1.027 0 000 2.055h11.595v14.734H2.206V3.939h50.119a1.027 1.027 0 000-2.055H1.178C.61 1.884.15 2.344.15 2.91V19.7c0 .567.46 1.027 1.027 1.027H5.2v2.548H1.178c-.567 0-1.027.46-1.027 1.028v16.789c0 .567.46 1.027 1.027 1.027H5.2v2.549H1.178c-.567 0-1.027.46-1.027 1.027v16.789c0 .568.46 1.028 1.027 1.028H5.2v1.52c0 1.7 1.382 3.083 3.08 3.083h7.422a3.085 3.085 0 003.08-3.082v-1.521H52.27v1.52c0 1.7 1.382 3.083 3.08 3.083h7.422a3.085 3.085 0 003.08-3.082v-1.521h3.2c.567 0 1.027-.46 1.027-1.028V45.696c0-.567-.46-1.027-1.027-1.027H65.03V42.12h4.022c.567 0 1.027-.46 1.027-1.027v-16.79c0-.567-.46-1.027-1.027-1.027H65.03v-2.548h4.022zM16.728 65.033c0 .567-.46 1.028-1.026 1.028H8.28c-.566 0-1.027-.46-1.027-1.028v-1.52h9.475v1.52zm47.07 0c0 .567-.46 1.028-1.026 1.028H55.35c-.567 0-1.027-.46-1.027-1.028v-1.52h9.475v1.52zm-.821-20.364H56.43a1.027 1.027 0 000 2.055h11.596v14.733H2.204V46.724h50.12a1.027 1.027 0 000-2.055H7.254V42.12h55.723v2.549zm0-21.393h-41.92a1.027 1.027 0 000 2.055h46.968v14.734H2.206V25.332h14.747a1.027 1.027 0 000-2.056h-9.7v-2.548h55.724v2.548z" fill="#015D9D"/><path d="M34.96 7.67h-3.89a1.027 1.027 0 000 2.055h3.89a1.027 1.027 0 000-2.055zm8.682 0h-3.89a1.027 1.027 0 000 2.055h3.89a1.027 1.027 0 000-2.055zm8.682 0h-3.89a1.027 1.027 0 000 2.055h3.89a1.027 1.027 0 000-2.055zm4.791 2.055h3.89a1.027 1.027 0 000-2.055h-3.89a1.027 1.027 0 000 2.055zM34.96 12.887h-3.89a1.027 1.027 0 000 2.055h3.89a1.027 1.027 0 000-2.055zm8.682 0h-3.89a1.027 1.027 0 000 2.055h3.89a1.027 1.027 0 000-2.055zm8.682 0h-3.89a1.027 1.027 0 000 2.055h3.89a1.027 1.027 0 000-2.055zm4.791 2.055h3.89a1.027 1.027 0 000-2.055h-3.89a1.027 1.027 0 000 2.055zM11.83 29.062a3.638 3.638 0 00-3.632 3.636 3.638 3.638 0 003.632 3.636 3.638 3.638 0 003.633-3.636 3.638 3.638 0 00-3.633-3.636zm0 5.217a1.582 1.582 0 010-3.162 1.582 1.582 0 010 3.162z" fill="#015D9D"/><path d="M31.07 31.117h3.89a1.027 1.027 0 000-2.055h-3.89a1.027 1.027 0 000 2.055z" fill="#fff"/><path d="M39.752 31.117h3.89a1.027 1.027 0 000-2.055h-3.89a1.027 1.027 0 000 2.055zm8.682 0h3.89a1.027 1.027 0 000-2.055h-3.89a1.027 1.027 0 000 2.055zm8.681 0h3.89a1.027 1.027 0 000-2.055h-3.89a1.027 1.027 0 000 2.055zM31.07 36.334h3.89a1.027 1.027 0 000-2.055h-3.89a1.027 1.027 0 000 2.055zm8.682 0h3.89a1.027 1.027 0 000-2.055h-3.89a1.027 1.027 0 000 2.055zm8.682 0h3.89a1.027 1.027 0 000-2.055h-3.89a1.027 1.027 0 000 2.055zm8.681 0h3.89a1.027 1.027 0 000-2.055h-3.89a1.027 1.027 0 000 2.055zM11.83 50.455a3.638 3.638 0 00-3.632 3.636 3.638 3.638 0 003.632 3.636 3.638 3.638 0 003.633-3.636 3.638 3.638 0 00-3.633-3.636zm0 5.216a1.582 1.582 0 010-3.161 1.582 1.582 0 010 3.161zm23.13-5.216h-3.89a1.027 1.027 0 000 2.055h3.89a1.027 1.027 0 000-2.055zm8.682 0h-3.89a1.027 1.027 0 000 2.055h3.89a1.027 1.027 0 000-2.055z" fill="#015D9D"/><path d="M52.324 50.455h-3.89a1.027 1.027 0 000 2.055h3.89a1.027 1.027 0 000-2.055zm4.791 2.055h3.89a1.027 1.027 0 000-2.055h-3.89a1.027 1.027 0 000 2.055z" fill="#fff"/><path d="M34.96 55.671h-3.89a1.027 1.027 0 000 2.056h3.89a1.027 1.027 0 000-2.056zm8.682 0h-3.89a1.027 1.027 0 000 2.056h3.89a1.027 1.027 0 000-2.056zm8.682 0h-3.89a1.027 1.027 0 000 2.056h3.89a1.027 1.027 0 000-2.056zm4.791 2.056h3.89a1.027 1.027 0 000-2.056h-3.89a1.027 1.027 0 000 2.056z" fill="#015D9D"/></g><defs><clipPath id="clip0"><path fill="#fff" transform="translate(.151)" d="M0 0h69.927v70H0z"/></clipPath></defs></svg>