<svg width="51" height="50" fill="none" xmlns="http://www.w3.org/2000/svg"><g clip-path="url(#clip0)" fill="#015D9D"><path d="M23.84 25.336c.67.36 1.53.54 2.391.54.86 0 1.721-.18 2.392-.54a.733.733 0 00-.69-1.291c-.923.494-2.48.494-3.403 0a.731.731 0 10-.69 1.29z"/><path d="M43.14 33.302c-1.743-1.57-4.026-2.76-6.323-3.304a349.5 349.5 0 01-3.391-2.495c1.78-1.699 3.16-3.84 3.778-6.018.7-.136 1.412-.52 1.986-1.087.701-.692 1.103-1.56 1.103-2.382v-1.09a1.836 1.836 0 00-1.834-1.835h-.91v-5.24c0-4.543-3.675-7.583-7.113-8.913-4.23-1.636-8.56-1.096-10.773 1.342a6.4 6.4 0 00-.112.126 6.42 6.42 0 00-.167.025c-2.196.363-3.76 1.868-4.522 4.352-.578 1.883-.548 3.814-.536 4.541l.002.17v3.597h-.91c-1.01 0-1.832.823-1.832 1.834v1.091c0 .823.402 1.692 1.103 2.384.574.566 1.284.949 1.983 1.085.62 2.18 2.001 4.323 3.784 6.023l-1.1.853c-.803.624-1.7 1.32-2.044 1.581-2.381.516-4.767 1.733-6.573 3.36-2.182 1.966-3.335 4.314-3.335 6.793v2.38a.732.732 0 101.464 0v-2.38c0-4.255 4.322-7.707 8.606-8.69l4.598 3.425a.729.729 0 00.05.034c.174.109.287.198.379.269.27.211.5.295.703.295.334 0 .598-.228.855-.49.143-.147.35-.358.677-.649l.46 1.81-2.664 8.887-.006.02a.828.828 0 00.055.687l1.495 2.837h-8.31v-5.116a.732.732 0 10-1.464 0v5.116H7.38c-.086 0-.168.002-.247.003-.08.002-.18.004-.259.002a1.831 1.831 0 01-.006-.164v-2.563a.732.732 0 10-1.464 0v2.563c0 .366.043.894.415 1.26.334.328.751.37 1.143.37.067 0 .133-.002.197-.003.07-.002.144-.003.22-.003H44.5c.077 0 .15.002.22.003l.198.002c.392 0 .81-.04 1.143-.37.372-.365.415-.893.415-1.259v-8.276c0-2.479-1.153-4.828-3.335-6.793zm-5.592-14.129v-2.617h.91c.202 0 .371.17.371.37v1.09c0 .426-.249.927-.666 1.339a2.817 2.817 0 01-.644.477c.02-.223.03-.443.03-.659zm-23.832.183c-.417-.412-.666-.913-.666-1.34v-1.09c0-.2.168-.37.368-.37h.91v2.617c0 .216.01.436.03.659a2.807 2.807 0 01-.642-.476zm21.47 11.264l-4.052 3.018a5.35 5.35 0 00-.218.145 13.78 13.78 0 00-.783-.73l-.782-.701a.731.731 0 00-.209-.189l-1.519-1.365c.413-.096.842-.227 1.298-.398 1.181-.44 2.324-1.102 3.37-1.918.973.73 2.13 1.58 2.895 2.138zm-7.24 2.436l-.593 2.326h-2.828l-.568-2.233 1.996-1.883 1.992 1.79zm-8.32-29.18c.086-.014.15-.023.201-.03.375-.05.536-.138.783-.425.032-.039.075-.088.135-.154 1.07-1.18 2.857-1.793 4.896-1.793 1.357 0 2.825.272 4.268.83 2.986 1.155 6.177 3.744 6.177 7.546v3.215c-2.353-3.307-4.898-3.09-7.566-2.863-2.018.171-4.104.349-6.521-.918-1.133-.594-3.336-1.074-5.357 2.378l-.85 1.456v-1.624c0-.049 0-.114-.002-.193-.049-3.09.577-6.886 3.835-7.425zm13.541 10.659h-5.27c-.632 0-1.146.515-1.146 1.147v.593a4.93 4.93 0 00-1.665.002v-.595c0-.632-.513-1.147-1.143-1.147h-5.27c-.631 0-1.144.515-1.144 1.147v.426l-1.423-.625 1.8-3.082c1.616-2.761 2.923-2.077 3.414-1.82 2.795 1.465 5.201 1.26 7.324 1.08 2.88-.245 5-.425 7.179 3.796l-1.512.657v-.432c0-.632-.513-1.147-1.144-1.147zM32.846 16v2.457h-4.633V16h4.633zm-9.224 0v2.457h-4.63V16h4.63zm-7.656 4.646a6.644 6.644 0 01-.175-1.473v-2.228l1.737.763v1.07c0 .63.513 1.144 1.143 1.144h5.27c.631 0 1.144-.514 1.144-1.145V17.77a3.48 3.48 0 011.665-.002v1.01c0 .63.514 1.144 1.146 1.144h5.27c.63 0 1.144-.514 1.144-1.145V17.71l1.775-.77v2.233c0 .469-.059.964-.175 1.473-.792 3.479-4.017 7.082-7.502 8.382-.93.348-1.715.51-2.469.51-.756 0-1.54-.162-2.469-.51-3.486-1.3-6.712-4.904-7.504-8.382zm6.687 11.719a.71.71 0 00-.023.022l-.713.673c-.357.31-.601.547-.776.723a5.35 5.35 0 00-.218-.145l-4.071-3.032c.403-.312.907-.703 1.401-1.088l1.334-1.035.039.029c1.036.802 2.165 1.453 3.332 1.888.462.173.897.305 1.317.403l.025.008-1.647 1.554zm22.358 16.006c0 .069-.002.122-.006.163-.08.002-.178 0-.26 0a9.463 9.463 0 00-.245-.004h-5.537v-5.116a.732.732 0 10-1.463 0v5.116h-7.7l1.493-2.831a.823.823 0 00.05-.713l-.897-2.995a.732.732 0 10-1.402.42l.844 2.814-1.742 3.305H23.73l-1.742-3.305 2.512-8.379h2.877l.736 2.457a.732.732 0 101.402-.42l-.835-2.785.494-1.938c.412.358.66.61.823.778.257.262.52.49.856.49.203 0 .432-.084.703-.295.09-.072.204-.16.378-.269a.75.75 0 00.05-.034l4.555-3.393c4.24 1.023 8.473 4.448 8.473 8.657v8.277z"/></g><defs><clipPath id="clip0"><path fill="#fff" transform="translate(.966)" d="M0 0h49.948v50H0z"/></clipPath></defs></svg>