<svg width="43" height="45" fill="none" xmlns="http://www.w3.org/2000/svg"><path d="M40.262 11.214h-.456a12.731 12.731 0 00-1.125-2.715l.324-.324c.371-.371.575-.866.575-1.393s-.204-1.022-.575-1.393l-2.16-2.158a1.952 1.952 0 00-1.395-.578 1.95 1.95 0 00-1.392.577l-.324.323c-.86-.48-1.769-.857-2.715-1.127V1.97c0-1.086-.884-1.97-1.97-1.97h-3.054c-1.087 0-1.97.884-1.97 1.97v.456c-.947.27-1.856.647-2.718 1.128l-.322-.323a1.952 1.952 0 00-1.394-.578 1.95 1.95 0 00-1.393.577l-2.16 2.16c-.37.37-.575.865-.575 1.392 0 .527.204 1.022.575 1.393l.324.324a12.69 12.69 0 00-1.125 2.715h-.458c-1.087 0-1.97.883-1.97 1.97v3.057c0 1.086.883 1.97 1.97 1.97h.457c.269.944.646 1.853 1.126 2.714l-.324.325c-.37.37-.575.865-.575 1.392 0 .527.204 1.022.575 1.393l2.158 2.158c.371.373.866.579 1.394.579a1.95 1.95 0 001.393-.577l.324-.324a12.66 12.66 0 002.717 1.126v.457c0 1.087.884 1.97 1.97 1.97h3.055c1.086 0 1.97-.883 1.97-1.97v-.457a12.618 12.618 0 002.715-1.126l.322.322c.37.373.866.579 1.394.579a1.95 1.95 0 001.392-.577l2.163-2.16c.371-.371.575-.866.575-1.393s-.204-1.021-.575-1.392l-.324-.325a12.73 12.73 0 001.125-2.714h.456c1.086 0 1.97-.884 1.97-1.97v-3.057c0-1.087-.883-1.97-1.97-1.97zm-11 16.24a.215.215 0 01-.213.213h-3.054a.215.215 0 01-.213-.213v-6.682a.879.879 0 00-.573-.824 6.062 6.062 0 01-3.948-5.656 6.04 6.04 0 012.843-5.108 5.928 5.928 0 01-.015.28c-.007.089-.012.16-.012.23v4.147a3.636 3.636 0 003.386 3.62.868.868 0 00.117 0 3.635 3.635 0 003.384-3.62V9.693c0-.07-.005-.14-.012-.228a5.908 5.908 0 01-.015-.28c.057.033.123.074.197.125a6.04 6.04 0 012.646 4.982 6.064 6.064 0 01-3.946 5.656.879.879 0 00-.573.824v6.682zm11.212-11.213a.217.217 0 01-.212.212h-1.138a.879.879 0 00-.858.685 10.992 10.992 0 01-1.432 3.456c-.22.348-.17.8.121 1.091l.807.808a.21.21 0 01.06.15.21.21 0 01-.06.148l-2.164 2.163a.205.205 0 01-.148.06.206.206 0 01-.15-.062l-.806-.808a.879.879 0 00-1.093-.12c-.75.475-1.548.852-2.382 1.13v-3.797c2.727-1.269 4.52-4.034 4.52-7.065a7.797 7.797 0 00-3.413-6.433c-.327-.224-1.323-.904-2.193-.403-.855.492-.77 1.646-.734 2.138.004.043.007.08.007.1v4.147c0 .962-.735 1.769-1.684 1.862a1.875 1.875 0 01-1.687-1.862V9.7c0-.027.003-.063.007-.106.036-.492.122-1.645-.732-2.138-.87-.502-1.867.18-2.195.403a7.797 7.797 0 00-3.412 6.433c0 3.031 1.793 5.797 4.521 7.065v3.798a10.96 10.96 0 01-2.385-1.132.877.877 0 00-1.092.122l-.809.809a.204.204 0 01-.147.06.206.206 0 01-.15-.062l-2.16-2.16a.21.21 0 01-.06-.15c0-.033.008-.097.06-.15l.807-.807a.879.879 0 00.122-1.09 10.935 10.935 0 01-1.433-3.456.879.879 0 00-.857-.686h-1.141a.218.218 0 01-.213-.212v-3.057c0-.115.098-.213.213-.213h1.14a.879.879 0 00.858-.686A10.93 10.93 0 0118.21 8.83a.878.878 0 00-.122-1.091l-.807-.807a.211.211 0 01-.06-.15c0-.033.008-.097.06-.15l2.162-2.162c.05-.05.108-.06.148-.06.04 0 .098.01.15.062l.806.808a.88.88 0 001.092.121 10.986 10.986 0 013.458-1.435.88.88 0 00.685-.857V1.97c0-.115.098-.212.213-.212h3.054c.115 0 .212.097.212.212v1.14c0 .41.285.766.686.857 1.227.277 2.39.76 3.455 1.435.347.22.8.17 1.092-.121l.809-.81a.207.207 0 01.147-.06c.04 0 .099.011.15.063l2.163 2.16a.21.21 0 01.06.15.21.21 0 01-.06.149l-.808.807a.879.879 0 00-.121 1.091 10.994 10.994 0 011.433 3.457c.09.4.446.684.857.684h1.138c.115 0 .213.098.213.213v3.057zM32.643 38.7a.879.879 0 001.243 1.242l.002-.002a.878.878 0 00-.001-1.242.88.88 0 00-1.244.001z" fill="#015D9D"/><path d="M36.714 30.185l-6.977 3.584a3.24 3.24 0 00-2.337-.995h-4.781c-.268 0-.333-.021-.338-.023a2.576 2.576 0 01-.26-.228l-.043-.04c-3.868-3.642-7.135-3.411-10.85-1.945-.602.238-.613.238-1.217.264H8.83a2.337 2.337 0 00-2.215-1.6H3.099a2.335 2.335 0 00-2.33 2.333v9.226a2.334 2.334 0 002.33 2.33h3.516c1.03 0 1.907-.67 2.215-1.599h1.977c.175 0 .175 0 .378.058l.28.077 9.096 2.433c.4.109.768.215 1.124.318 1.166.338 2.145.622 3.166.622 1.154 0 2.36-.363 3.948-1.42a.84.84 0 00.023-.016l1.736-1.238a.879.879 0 10-1.02-1.431l-1.725 1.23c-2.303 1.531-3.281 1.248-5.639.565-.363-.105-.738-.214-1.157-.327l-9.096-2.434c-.107-.028-.19-.052-.26-.071a2.448 2.448 0 00-.854-.123H8.948V32.56h.988l.05-.003c.737-.031.943-.051 1.787-.385 3.263-1.287 5.782-1.44 9.001 1.59l.044.041c.55.517.867.728 1.8.728H27.4c.56 0 1.05.311 1.305.77l.009.015a1.493 1.493 0 01-1.314 2.198h-7.748a.879.879 0 100 1.758H27.4a3.253 3.253 0 003.172-3.957l6.945-3.567c.657-.337 1.556-.301 2.003.423.394.638.177 1.487-.505 1.973l-3.047 2.17a.879.879 0 001.02 1.432l3.047-2.17c1.447-1.032 1.868-2.893.98-4.328-.873-1.417-2.722-1.874-4.3-1.064zM7.191 40.761a.582.582 0 01-.576.573H3.099a.581.581 0 01-.573-.573v-9.226c0-.317.257-.576.573-.576h3.516c.312 0 .576.264.576.576v9.226z" fill="#015D9D"/></svg>