<svg id="sputnik" width="70" height="70" fill="none" xmlns="http://www.w3.org/2000/svg"><path d="M68.975 54.073L52.91 38.007c-1.367-1.367-3.648-1.367-5.015 0L45.19 40.71l-1.58-1.58 7.488-7.487 6.584-2.256c1.87-.641 2.446-3.109 1.045-4.51l-8.762-8.762a1.026 1.026 0 00-1.451 1.45l8.762 8.762a.683.683 0 01-.26 1.12l-6.202 2.125-10.386-10.386 2.126-6.203a.683.683 0 011.118-.259l1.381 1.381a1.026 1.026 0 001.451-1.45l-1.381-1.382c-1.402-1.401-3.87-.824-4.51 1.045l-2.256 6.584-4.759 4.758a1.026 1.026 0 101.451 1.45l4.2-4.2 9.84 9.84-17.818 17.819a.739.739 0 01-1.043 0l-8.796-8.796a.739.739 0 010-1.044l10.163-10.163c.4-.401.4-1.05 0-1.451L29.29 24.81l2.703-2.703c1.368-1.367 1.367-3.649 0-5.016L15.928 1.026c-1.367-1.367-3.649-1.367-5.016 0l-9.886 9.886c-1.367 1.367-1.367 3.648 0 5.016l16.067 16.066c1.387 1.34 3.634 1.38 5.015 0l2.703-2.703 1.58 1.579-6.41 6.408a2.793 2.793 0 000 3.946l2.159 2.157-1.58 1.58-1.253-1.255a10.696 10.696 0 00-7.613-3.153c-2.876 0-5.58 1.12-7.613 3.153-1.065 1.066-1.065 2.85 0 3.915l6.092 6.091-1.869 5.439c-.533 1.55.996 3.079 2.547 2.546l5.438-1.868 1.421 1.421a1.026 1.026 0 001.451-1.45L5.531 46.17a.717.717 0 010-1.013c3.399-3.398 8.927-3.398 12.325 0l6.988 6.988a8.656 8.656 0 012.553 6.162 8.656 8.656 0 01-2.553 6.162.717.717 0 01-1.013 0l-1.302-1.302a1.026 1.026 0 10-1.45 1.451l1.301 1.302c1.066 1.066 2.85 1.066 3.915 0a10.696 10.696 0 003.153-7.613c0-2.875-1.12-5.579-3.153-7.612l-1.254-1.254 1.58-1.579 2.157 2.158a2.781 2.781 0 001.973.816 2.78 2.78 0 001.972-.816l6.409-6.409 1.578 1.58-2.702 2.702c-1.368 1.367-1.367 3.649 0 5.016l16.066 16.066c1.367 1.367 3.648 1.367 5.016 0l9.885-9.886c1.368-1.367 1.368-3.649 0-5.016zM30.982 19.6c0 .4-.156.774-.438 1.057l-4.218 4.218-3.402-3.402 5.275-5.275 2.345 2.345c.282.282.438.658.438 1.057zm-19.775 3.607l5.275-5.274 3.54 3.54-5.274 5.275-3.54-3.54zm-4.991-4.991l5.275-5.275 3.54 3.54-5.274 5.275-3.541-3.54zm15.54-8.46l-5.274 5.275-3.54-3.54 5.274-5.276 3.54 3.541zm-3.823 6.726l5.274-5.275 3.541 3.54-5.275 5.275-3.54-3.54zm-5.57-14.006a1.509 1.509 0 012.114 0l2.288 2.289-5.274 5.274-3.346-3.345 4.218-4.218zM2.04 13.42c0-.4.156-.775.438-1.057l4.218-4.218 3.345 3.345-5.275 5.275-2.288-2.288a1.484 1.484 0 01-.438-1.057zm18.618 17.123c-.586.587-1.523.552-2.114 0L16.2 28.198l5.275-5.274 3.401 3.401-4.218 4.218zm5.605-2.703l1.579-1.579 1.579 1.58-1.58 1.578-1.578-1.579zM10.276 59.725l1.51-4.398 2.888 2.887-4.398 1.511zM23.59 47.99l-1.578-1.58 1.578-1.578 1.58 1.58-1.58 1.578zm24.627 12.227l5.275-5.275 3.54 3.54-5.275 5.275-3.54-3.54zm-4.992-4.992L48.5 49.95l3.54 3.541-5.274 5.275-3.54-3.54zm15.541-8.46l-5.274 5.275-3.541-3.54 5.275-5.275 3.54 3.54zm-3.824 6.726l5.275-5.275 3.54 3.54-5.274 5.276-3.54-3.54zm-5.598-14.033a1.508 1.508 0 012.114 0l2.317 2.316L48.5 47.05l-3.373-3.374 4.217-4.217zm-8.762 2.703l1.58-1.58 1.578 1.58-1.579 1.579-1.579-1.58zM39.02 50.4c0-.4.156-.775.438-1.057l4.218-4.218 3.373 3.374-5.274 5.274-2.317-2.316a1.484 1.484 0 01-.438-1.057zm18.62 17.124c-.587.587-1.524.553-2.114 0l-2.317-2.316 5.275-5.275 3.373 3.374-4.217 4.218zm9.886-9.886l-4.218 4.218-3.373-3.374 5.275-5.274 2.316 2.316a1.508 1.508 0 010 2.114z" fill="#FFF"/><path d="M27.712 39.259l3.03 3.03a1.04 1.04 0 001.45 0l9.614-9.615c.4-.4.4-1.05 0-1.45l-3.03-3.03c-.4-.4-1.05-.4-1.45 0l-9.614 9.614c-.401.4-.401 1.05 0 1.45zm10.34-8.89l1.578 1.58-8.164 8.163-1.579-1.579 8.164-8.163z" fill="#FFF"/></svg>