<svg width="71" height="70" fill="none" xmlns="http://www.w3.org/2000/svg"><g clip-path="url(#clip0)" fill="#015D9D"><path d="M24.022 34.046c-1.359-.247-2.277-.372-2.282-1.268-.003-.753.651-1.546 2.299-1.546 1.1 0 2.066.354 2.917.815a.95.95 0 10.897-1.674c-1.073-.572-2.37-1.032-3.718-1.032-1.97 0-4.36.986-4.365 3.52-.005 2.624 2.573 3.012 4.252 3.287 1.552.254 2.472.42 2.48 1.277.01 1.132-1.64 1.342-2.415 1.342-1.08 0-2.139-.4-3.077-.877a.954.954 0 00-.895 1.686c1.217.676 2.632 1.083 3.907 1.083 1.6 0 4.443-.63 4.443-3.298 0-2.442-2.391-2.943-4.443-3.315zm11.098 0c-1.36-.247-2.278-.372-2.282-1.268-.004-.753.65-1.546 2.298-1.546 1.1 0 2.066.354 2.917.815a.949.949 0 10.897-1.674c-1.072-.572-2.37-1.032-3.717-1.032-1.97 0-4.361.986-4.366 3.52-.004 2.624 2.573 3.012 4.253 3.287 1.551.254 2.472.42 2.478 1.277.01 1.132-1.639 1.342-2.414 1.342-1.078 0-2.139-.4-3.077-.877a.953.953 0 00-.894 1.686c1.216.676 2.631 1.083 3.907 1.083 1.599 0 4.442-.63 4.442-3.298 0-2.442-2.39-2.943-4.442-3.315zm11.141-4.544h-3.456a.985.985 0 00-.986.987v9.022c0 .545.441.987.986.987h3.457c3.078 0 5.572-2.462 5.572-5.498s-2.495-5.498-5.573-5.498zm0 9.104h-2.47v-7.212h2.47A3.604 3.604 0 0149.863 35a3.604 3.604 0 01-3.602 3.606zM59.023 7.413V5.814a1.025 1.025 0 10-2.048 0v1.599a1.025 1.025 0 102.048 0zm-44.539 0V5.814a1.025 1.025 0 10-2.049 0v1.599a1.025 1.025 0 102.05 0zm43.515 54.149c-.566 0-1.024.46-1.024 1.025v1.599a1.025 1.025 0 102.048 0v-1.599c0-.566-.459-1.025-1.024-1.025zm-44.539 0c-.566 0-1.025.46-1.025 1.025v1.599a1.025 1.025 0 102.05 0v-1.599c0-.566-.46-1.025-1.025-1.025z"/><path d="M63.86 0H7.6C4.013 0 1.097 2.92 1.097 6.509V9.53a1.025 1.025 0 102.048 0V6.51A4.46 4.46 0 017.6 2.05h56.262c2.455 0 4.453 2 4.453 4.458v15.196H3.146v-8.722a1.025 1.025 0 10-2.048 0V63.49c0 3.59 2.916 6.509 6.501 6.509h56.262c3.585 0 6.501-2.92 6.501-6.509V6.51c0-3.59-2.916-6.509-6.501-6.509zM45.37 67.95v-2.254a1.024 1.024 0 10-2.048 0v2.253h-2.26v-2.253a1.025 1.025 0 10-2.048 0v2.253h-2.26v-2.253a1.025 1.025 0 10-2.048 0v2.253h-2.26v-2.253a1.025 1.025 0 10-2.048 0v2.253h-2.26v-2.253a1.025 1.025 0 10-2.049 0v2.253h-3.993l2.696-4.173a2.049 2.049 0 011.729-.942H44.94a2.05 2.05 0 011.728.942l2.696 4.173h-3.993zm18.49 0H51.805l-3.416-5.288a4.09 4.09 0 00-3.449-1.878H26.52c-1.4 0-2.688.702-3.448 1.878l-3.416 5.287H7.6a4.46 4.46 0 01-4.453-4.458V48.295h54.29a1.025 1.025 0 000-2.051H3.146V23.756h65.168v22.488h-7.43a1.025 1.025 0 000 2.05h7.43v15.197a4.46 4.46 0 01-4.453 4.458z"/></g><defs><clipPath id="clip0"><path fill="#fff" transform="translate(.766)" d="M0 0h69.927v70H0z"/></clipPath></defs></svg>