<svg width="51" height="50" fill="none" xmlns="http://www.w3.org/2000/svg"><g clip-path="url(#clip0)" fill="#015D9D"><path d="M37.238 9.137a2.825 2.825 0 00-.163-.16c-.035-.033-.075-.07-.126-.12L30.337 2.59l-.098-.094a2.124 2.124 0 00-.43-.347 1.061 1.061 0 00-.522-.129H1.88c-.736 0-1.335.598-1.335 1.332v43.296c0 .734.599 1.332 1.335 1.332h34.304c.737 0 1.337-.597 1.337-1.332V26.252a.731.731 0 10-1.462 0v20.264H2.008V3.484h26.704L28.71 7.3a3.11 3.11 0 00.917 2.215c.6.601 1.396.932 2.242.932h4.191v12.397a.731.731 0 101.462 0V9.715a.73.73 0 00-.284-.578zm-6.576-.656a1.656 1.656 0 01-.49-1.18l.002-2.851 4.781 4.534H31.87c-.455 0-.884-.179-1.207-.503z"/><path d="M25.826 13.025a.731.731 0 00-.731-.731H11.402a.731.731 0 000 1.463h13.693a.731.731 0 00.731-.732zM11.402 9.124h13.693a.731.731 0 000-1.463H11.402a.731.731 0 000 1.463zM31.92 26.123H18.67a.731.731 0 000 1.463h13.25a.731.731 0 000-1.463zm0-4.228H18.67a.731.731 0 000 1.463h13.25a.731.731 0 000-1.463zm0 16.703H18.67a.731.731 0 000 1.464h13.25a.731.731 0 000-1.464zm0-4.225H18.67a.731.731 0 000 1.464h13.25a.731.731 0 000-1.464zM16.07 17.835a.73.73 0 00-1.022.153l-1.436 1.942H6.637a1.26 1.26 0 00-1.26 1.256v7.109a1.26 1.26 0 001.26 1.256h7.151a1.26 1.26 0 001.259-1.256v-7.109c0-.2-.049-.39-.133-.558l1.31-1.77a.732.732 0 00-.154-1.023zm-2.485 10.253H6.84v-6.695h5.69l-2.331 3.151-.722-.813a.73.73 0 10-1.093.972l1.32 1.488a.73.73 0 001.134-.05l2.747-3.715v5.662zm2.485 2.01a.73.73 0 00-1.022.153l-1.436 1.942H6.637a1.26 1.26 0 00-1.26 1.257v7.108a1.26 1.26 0 001.26 1.257h7.151a1.26 1.26 0 001.259-1.257V33.45c0-.201-.049-.39-.133-.558l1.31-1.77a.732.732 0 00-.154-1.024zm-2.485 10.253H6.84v-6.694h5.69l-2.331 3.15-.722-.812a.73.73 0 10-1.093.972l1.32 1.487a.73.73 0 001.134-.05l2.747-3.715v5.662zm36.178-29.216H47.25v-1.5c0-.613-.35-1.144-.862-1.408V5.443a2.691 2.691 0 00-2.694-2.683 2.691 2.691 0 00-2.693 2.683v2.785c-.51.264-.86.795-.86 1.407v30.438l.001.013a.723.723 0 00.007.085l.004.027a.76.76 0 00.014.063l.005.018a.746.746 0 00.029.081l2.72 6.359a.732.732 0 00.023.048l.01.018c.074.145.272.529.74.529h.012c.478-.007.667-.398.748-.565l.013-.03 2.724-6.358a.742.742 0 00.029-.082l.004-.017a.701.701 0 00.024-.147l.001-.029v-5.52a.731.731 0 10-1.461 0v4.775h-4.184V9.634c0-.065.06-.122.128-.122h3.925c.07 0 .13.057.13.122v21.521a.731.731 0 101.463 0V12.6h1.78v10.23a.731.731 0 101.463 0V11.867a.731.731 0 00-.731-.732zm-4.352 29.67l-1.716 4.004-1.713-4.005h3.429zM42.464 8.048V5.443c0-.673.552-1.22 1.232-1.22.679 0 1.231.547 1.231 1.22v2.606h-2.463z"/></g><defs><clipPath id="clip0"><path fill="#fff" transform="translate(.546)" d="M0 0h49.948v50H0z"/></clipPath></defs></svg>