<svg width="17" height="20" fill="none" xmlns="http://www.w3.org/2000/svg"><g clip-path="url(#clip0)"><path d="M16.285 17.506a.72.72 0 00.005-.005m-.005.005l-.005.005s0 0 0 0 0 0 0 0l.002.001h.001l.033.028m-.03-.034h0m0 0l-.002.002c0-.001 0-.002.002-.002m.004-.005l.03.036m-.03-.036a.1.1 0 01.064-.023v.081l-.034-.022m-.03-.036h0a.12.12 0 00-.005.005m.035.03l-.013-.007-.003-.002.012.013m.004-.003l.016.02-.01-.01-.01-.007m0 0l.012.013.004.005.001.001v.001l-.053-.049-.002.002m0 0l.008-.007m-.008.007c0 .001 0 .002-.002.002l.055.044-.056-.042.003-.004zm0 0a.106.106 0 00-.015.024l.084.038-.008-.008-.061-.053zm0 0s0 0 0 0h0zm.001 0l-.035.038c-.95 1.027-2.325 1.616-3.874 1.605h0c-1.154-.006-2.415-.329-3.751-.964-.284-.135-.425-.508-.297-.835.127-.324.459-.46.736-.328l.043-.09-.043.09c1.174.558 2.32.858 3.317.864 0 0 0 0 0 0v-.1l3.904-.28zm0 0c.422-.52.642-1.191.62-1.891a2.808 2.808 0 00-.744-1.839h0c-.855-.913-1.704-1.587-2.55-1.81a2.176 2.176 0 00-1.263.027c-.423.138-.854.417-1.293.872l-.002.002h0l-.898.983-.056.061-.07-.044c-.568-.353-1.7-1.183-2.884-2.489-1.185-1.306-1.937-2.553-2.256-3.178l-.032-.061.046-.051.89-.99h.001l.002-.002c.823-.965 1.022-1.909.82-2.84-.205-.939-.818-1.877-1.646-2.82h0C4.524.942 3.937.654 3.31.629l12.97 16.884zM4.1 14.766h0l.005.007h0a16.75 16.75 0 001.575 1.511h0c.244.206.593.159.784-.116a.683.683 0 00-.105-.892l.064-.077-.064.077a15.491 15.491 0 01-1.47-1.41l.074-.068-.074.068-.005-.006v-.001c-2.265-2.5-3.63-5.575-3.642-8.234-.007-1.381.37-2.546 1.101-3.36l.004-.005h0l.005-.004h0c.524-.519 1.321-.487 1.808.07.862.986 1.277 1.727 1.37 2.341.095.625-.145 1.1-.536 1.542h0l-1.23 1.367a.688.688 0 00-.117.709c.502 1.229 1.536 2.704 2.723 4.009 1.188 1.306 2.518 2.43 3.604 2.969a.519.519 0 00.62-.127l1.239-1.356v-.001c.4-.43.836-.701 1.416-.595.564.104 1.239.565 2.131 1.514l-.072.069H4.098zm0 0C2.42 12.9 1.002 10.48.404 8.05-.193 5.624.029 3.201 1.609 1.306m2.49 13.461l-2.49-13.46M4.03 14.84c.47.517 1.003 1.029 1.585 1.52L4.03 14.84zm0 0l-.006-.007.006.007zM1.61 1.306a2.278 2.278 0 011.7-.678l-1.7.678zm12.28 7.986h0c-.267.143-.609.026-.747-.294h0c-.14-.32-.014-.7.265-.848l-.047-.089.047.089 2.687-1.427c.274-.145.61-.023.748.294.14.32.014.7-.266.848l.047.088-.047-.088-2.687 1.427zm.525-6.801l-.074-.068.074.068a.52.52 0 01.79 0 .686.686 0 010 .9L10.86 8.183a.52.52 0 01-.79 0 .686.686 0 010-.9l4.346-4.792zm1.864 15.022v-.001h0zM9.328 4.793v-.001c-.28-.148-.406-.527-.266-.848L10.356.98c.138-.317.474-.44.747-.294.28.148.406.527.265.848l-1.293 2.963h0c-.139.32-.48.438-.747.294z" fill="#fff" fill-opacity=".59" stroke="#34466E" stroke-width=".2"/></g><defs><clipPath id="clip0"><path fill="#fff" transform="translate(0 .517)" d="M0 0h17v18.745H0z"/></clipPath></defs></svg>