<svg width="51" height="50" fill="none" xmlns="http://www.w3.org/2000/svg"><g clip-path="url(#clip0)" fill="#015D9D"><path d="M49.511 8.147c0-1.888-.321-3.74-.956-5.507a1.226 1.226 0 00-1.52-.751c-.875.286-1.978-.23-3.144-.778C42.78.591 41.52 0 40.194 0s-2.586.59-3.697 1.111c-1.167.547-2.268 1.064-3.145.777a1.226 1.226 0 00-1.52.752 16.242 16.242 0 00-.933 6.327 20.21 20.21 0 00-7.648-1.496c-11.216 0-20.34 9.134-20.34 20.361 0 2.567.479 5.024 1.35 7.288l-1.473 1.474a1.44 1.44 0 000 2.031L13.73 49.58c.271.272.632.421 1.015.421.383 0 .744-.15 1.015-.42l2.109-2.112c1.715.472 3.52.725 5.382.725 1.862 0 3.667-.253 5.382-.725l2.109 2.111c.27.271.631.42 1.014.42.384 0 .744-.149 1.015-.42l4.19-4.195a.733.733 0 00-1.034-1.036l-4.17 4.175-3.817-3.82L38.843 33.79l3.816 3.82-4.318 4.322a.733.733 0 001.035 1.036l4.338-4.342c.27-.271.42-.632.42-1.016s-.15-.744-.42-1.016L42.24 35.12a20.27 20.27 0 001.35-7.288c0-2.471-.445-4.84-1.254-7.033 4.642-2.961 7.174-7.395 7.174-12.652zM14.745 48.523L3.842 37.61l3.817-3.82L18.56 44.703l-3.816 3.82zm7.54-28.526h1.445l1.363 1.364c.267.268.41.625.402 1.005a1.365 1.365 0 01-.448.986c-.535.49-1.408.45-1.946-.09l-4.837-4.842a1.38 1.38 0 010-1.947c.202-.202.451-.327.712-.377-.002.035-.005.069-.005.104v.479a3.32 3.32 0 003.314 3.318zm-1.85-3.318v-.48a.42.42 0 01.42-.42h3.763c.491 0 .934.26 1.178.666l-2.085 2.087h-1.426a1.854 1.854 0 01-1.85-1.853zm2.23 8.218c.262.263.405.612.402.984-.003.372-.151.72-.418.978a1.38 1.38 0 01-1.93-.015l-5.435-5.44a1.369 1.369 0 01-.403-.974c0-.368.143-.714.403-.974s.605-.403.973-.403c.367 0 .713.143.972.403l5.436 5.44zm-3.953 2.01c.262.262.406.612.403.983a1.37 1.37 0 01-.419.979 1.38 1.38 0 01-1.93-.016l-3.55-3.554-.912-.913a1.369 1.369 0 01-.403-.973c0-.368.143-.714.403-.974a1.37 1.37 0 01.973-.403c.352 0 .704.134.972.403l4.463 4.467zm-6.532-.573l2.378 2.38c.263.263.406.613.403.984-.003.372-.152.72-.419.978a1.38 1.38 0 01-1.93-.015l-2.376-2.379a1.38 1.38 0 010-1.947 1.37 1.37 0 01.973-.403c.352 0 .703.134.971.402zm1.406 6.19a2.828 2.828 0 002.76-2.17 2.852 2.852 0 003.369-.434 2.82 2.82 0 00.805-1.464c.37.167.771.251 1.172.251a2.828 2.828 0 002.839-2.814 2.865 2.865 0 00-.092-.742 2.821 2.821 0 002.52-2.753 2.819 2.819 0 00-.832-2.072l-1.07-1.07 2.336-2.339a1.376 1.376 0 011.948 1.946c-.001 0-.002 0-.002.002a.733.733 0 001.035 1.035 1.376 1.376 0 111.945 1.948.733.733 0 001.034 1.035c.26-.26.605-.403.973-.403.367 0 .713.143.972.403a1.38 1.38 0 010 1.947.733.733 0 001.035 1.036c.266-.266.617-.41.996-.403.376.006.725.162.983.438.5.535.468 1.41-.073 1.951l-5.25 5.256a.733.733 0 001.036 1.035l1.28-1.281 1.198 1.198-7.765 7.773-4.2-4.203a5.096 5.096 0 011.876-.286l1.392.051a6.55 6.55 0 003.504-.863.733.733 0 00-.726-1.272 5.102 5.102 0 01-2.724.671l-1.392-.051a6.587 6.587 0 00-4.891 1.922l-3.92 3.924-7.524-7.531 2.042-2.043c.434.248.922.372 1.41.372zm9.665 14.204c-1.435 0-2.831-.164-4.175-.469l.54-.54c.271-.271.42-.632.42-1.016s-.149-.744-.42-1.016l-.924-.925 3.92-3.924a4.96 4.96 0 01.573-.492l4.518 4.523-.817.818a1.44 1.44 0 000 2.032l.54.54a18.84 18.84 0 01-4.175.47zm18.877-18.896c0 2.151-.362 4.219-1.026 6.147l-1.244-1.245a1.425 1.425 0 00-1.015-.421c-.383 0-.744.15-1.015.42l-.29.292-1.198-1.199 2.934-2.938c1.092-1.093 1.14-2.882.107-3.988a2.816 2.816 0 00-2.22-.898 2.838 2.838 0 00-2.98-2.983 2.837 2.837 0 00-2.98-2.982 2.837 2.837 0 00-4.306-2.576 2.837 2.837 0 00-2.277-1.148h-3.762c-.404 0-.778.13-1.085.347a2.833 2.833 0 00-3.368 2.931 2.818 2.818 0 00-2.154.829 2.824 2.824 0 00-.827 2.156 2.83 2.83 0 00-2.152.827 2.824 2.824 0 00-.832 2.01c0 .387.077.762.224 1.108a2.823 2.823 0 00-1.46.778 2.847 2.847 0 000 4.019l1.867 1.87-1.97 1.971-.425-.425a1.425 1.425 0 00-1.015-.421c-.383 0-.744.15-1.015.42L5.4 33.98a18.833 18.833 0 01-1.026-6.147c0-10.42 8.469-18.896 18.877-18.896 2.79 0 5.44.61 7.826 1.704.767 4.704 3.738 8.58 8.559 11.072a1.217 1.217 0 001.117 0c.102-.053.201-.108.301-.162a18.835 18.835 0 011.074 6.282zm-1.934-7.48c-2.421-1.272-4.326-2.911-5.664-4.875-1.453-2.134-2.19-4.6-2.19-7.33 0-1.643.267-3.256.795-4.799 1.346.326 2.685-.302 3.982-.91 1.021-.478 2.076-.973 3.077-.973 1 0 2.056.495 3.076.973 1.297.608 2.636 1.236 3.983.91.528 1.543.795 3.156.795 4.799 0 2.73-.737 5.196-2.19 7.33-1.338 1.963-3.243 3.603-5.664 4.874z"/><path d="M45.243 9.097c.386-.12.6-.531.48-.917a5.768 5.768 0 00-5.529-4.065c-3.194 0-5.793 2.601-5.793 5.799a5.802 5.802 0 005.793 5.798 5.77 5.77 0 005.368-3.62.733.733 0 00-1.356-.551 4.313 4.313 0 01-4.012 2.706 4.337 4.337 0 01-4.33-4.334 4.336 4.336 0 014.33-4.333 4.311 4.311 0 014.132 3.037.732.732 0 00.917.48z"/><path d="M42.11 8.133l-2.258 2.261-1.576-1.576a.731.731 0 10-1.034 1.035l2.092 2.095a.73.73 0 001.035 0l2.777-2.78a.733.733 0 00-1.035-1.035z"/></g><defs><clipPath id="clip0"><path fill="#fff" transform="translate(.966)" d="M0 0h49.948v50H0z"/></clipPath></defs></svg>